<?xml version="1.0"?>
<svg xmlns="http://www.w3.org/2000/svg" version="1.2" baseProfile="tiny" width="800" height="1278" viewBox="0 0 800 1278" stroke-linecap="round" stroke-linejoin="round">
<g id="QLD">
<path d="M 662.26 998.47 660.77 998.18 649.94 992.49 644.23 986.63 636.41 982.76 632.76 978 622.85 974.65 621 966.99 608.38 962.34 605.17 962.69 601.04 960.1 595.42 959.15 592.03 959.57 579.13 953.51 576.92 951.1 575.27 949.77 573.71 949.6 572.33 947.45 573.47 944.49 574.98 941.29 569.3 943.61 566.53 944.92 563.68 944.34 548.44 942.14 545.09 941.85 535.15 940.49 519.46 938.2 516.38 938.38 504.06 936.78 497.67 935.83 488.89 934.52 474.96 932.77 467.59 931.62 462.68 930.94 454.6 929.78 450.14 929.14 440.09 927.99 426.43 926.11 411.72 924.33 405.57 923.56 397.48 922.08 383.15 920.47 372.1 918.84 372.04 919.87 371.76 921.47 369.26 921.14 368.2 921.47 368.76 918.34 357.75 916.9 348.39 915.64 347.18 915.48 338.79 914.48 335.88 914.08 329.23 913.2 325.07 912.64 322.75 912.34 302.62 909.31 298.25 908.74 297.69 908.68 295.06 908.38 291.04 907.83 289.7 907.64 280.56 906.39 272.4 905.31 269.38 904.91 267.87 904.73 266.89 904.58 258.62 903.53 255.44 903.09 251.73 902.65 248.54 902.15 238.49 900.93 220.96 898.79 219.96 898.67 211.78 897.6 210.09 897.21 208.45 896.39 206.76 894.78 205.97 893.59 204.94 891.02 204.62 889.7 204.67 886.16 205.72 880.19 206.68 875.04 207.76 868.77 201.48 867.86 199.72 867.63 195.56 867.06 186.24 865.76 179.85 864.82 173.37 863.83 160.49 862.08 152.87 860.83 142.48 859.42 139.51 859.01 129.11 857.59 128.43 857.49 128.52 856.92 129.26 852.73 130.11 848.29 131.28 841.58 132.79 832.98 132.89 832.43 133.87 825.72 135.25 818.55 135.41 817.65 137.06 807.69 133.01 807.19 131.62 807.35 126.58 806.72 123.08 806.25 120.54 805.96 116.18 805.38 109.44 804.45 105.29 803.97 82.15 800.95 40.17 795.52 49.09 746.86 53.44 723.66 58.22 698.15 59.11 693.33 61.18 682.35 62.63 674.59 65.51 659.32 67.63 648.06 69.71 636.99 74.46 612.37 80.27 581.31 85.4 553.48 83.51 553.28 85.51 542.74 91.65 540.21 84.8 517.52 83.43 508.41 88 500.1 86.4 485.52 91.42 458.17 90.55 457.07 95.67 428.7 97.17 427.69 95.66 425.71 86.11 413.92 82.66 413.49 88.77 378.86 82.67 377.89 88.14 348.75 87.5 342.97 85.79 340.31 83.74 337.92 81.58 335.38 72.12 323.39 72.71 317.29 73.74 311.77 76.65 296.18 79 283.84 79.07 278.12 70.55 263 68.09 258.81 63.06 254.4 61.97 253.37 63.15 246.54 59.98 238.48 59.25 233.62 63.02 227.42 64.41 224.18 65.16 216.2 67.92 212.37 70.27 209.2 70.85 205.88 71.81 183.57 72.11 176.08 72.69 162.67 73.18 161.8 99.88 127.09 108.75 118.47 109.53 105.21 111.41 91.19 112.51 83.74 111.9 78.37 110.1 75.44 108.17 70.47 106.14 67.48 102.55 62.58 100.81 59.91 97.13 55.08 95.25 54.61 94.27 54.05 92.43 52.93 91 52.25 90.13 50.36 89.79 48.92 89.97 48.05 90.8 47.49 91.85 47.41 93.8 48.47 94.52 48.59 95.22 48.05 95.68 47.35 96.06 46.99 95.9 45.97 95.77 45.62 95.59 44.66 95.73 44.27 95.94 43.75 95.96 43.69 95.82 42.71 95.26 42.17 94.93 42.25 93.84 42.43 92.3 42.07 89.47 42.44 89.04 43.03 89.01 45.33 88.21 46.62 83.58 46.41 82.24 45.39 82 44.34 82.88 42.9 83.18 42.6 83.84 42.26 84.54 41.86 85.34 39.68 86.43 39.66 87.56 39.91 87.97 39.97 89.33 38.02 90.74 36.92 90.71 36.56 90.57 36.21 90.19 35.28 89.78 34.54 89.29 33.82 89.08 33.22 88.33 32.12 88.41 31.01 88.36 30.59 88.42 30.3 88.45 29.94 88.45 29.67 88.31 29.02 88.3 28.67 88.26 27.94 87.98 27.36 87.86 27.21 87.53 26.31 87.41 26.09 87.3 25.73 87.16 25.37 87.38 24.19 87.62 23.96 90.06 21.44 90.66 19.86 91.18 18.5 90.79 15.15 91.61 14 92.25 13.04 93.38 11.41 94.28 10.05 94.85 8.85 94.25 8.14 93.58 7.94 93.24 7.92 91.86 8.09 90.32 8.51 87.67 8.69 86.37 8.62 85.77 8.6 85.4 8.16 84.98 7.79 85.69 7.02 86.73 6.05 95.6 7.29 96.06 8.53 164.15 17.65 188.99 20.98 192.24 1 197.38 2.52 241.58 8.08 259.53 10.38 271.19 11.81 285.75 13.63 301.5 15.61 314.38 17.22 321.81 18.13 347.07 20.97 369.87 24.14 398.53 27.85 394.72 40.52 393.81 45.71 409.2 47.73 410.21 41.51 421.63 43 449.91 46.76 476.93 50.22 504.76 53.9 506.63 41.03 620.95 56.34 625.31 31.87 653.95 35.48 707.36 42.12 703.41 66.81 726.55 69.95 723.98 72.68 723.45 76.22 719.01 107.45 729.14 108.54 722.1 154.6 719.87 168.52 715.13 195.91 714.58 196.28 713.14 205.19 712.21 206.97 713.73 208.77 711.49 210.4 710.41 211.28 709.42 212.11 708.69 212.8 707.98 213.28 707.22 213.72 706.47 214.08 705.55 214.28 704.46 214.43 703.17 214.34 702.14 214.06 701.16 213.64 700.15 213.07 698.87 211.95 696.1 208.82 694.66 207.37 693.98 206.81 693.45 206.43 692.93 206.12 692.14 205.75 691.29 205.4 690.58 205.27 689.82 205.18 688.96 205.14 688.33 205.15 687.28 205.24 686.27 205.38 685.33 205.64 679.87 207.57 674.18 209.65 672.97 209.82 671.64 209.73 669.79 209.4 668.35 208.9 667.07 208.18 666.23 207.39 665.42 206.28 664.89 204.74 664.83 203.44 665.01 202.05 667.33 197.31 667.7 195.78 667.7 193.95 667.33 191.77 667.65 188.83 668.7 185.97 670.33 183.59 670.74 180.95 670.19 179.02 668.79 177.22 665.63 175.84 662.18 175.8 659.23 176.86 654.58 179.27 652.5 180.85 650.45 183.39 646.18 189.51 642.99 191.61 638.82 194.23 635.25 195.26 631.68 197.34 629.28 199.97 629.24 204.2 631.61 207.68 632.62 209.02 633.39 210.51 633.39 213.3 631.41 216.02 628.76 217.53 624.69 218.51 618.53 219.26 613.03 219.44 611.13 219.15 607.54 218.38 603.63 216.92 601.52 216.62 598.66 217.11 595.84 218.27 583.75 223.69 579.16 225.12 571.21 227.09 567.59 228.25 564.47 230.16 562.27 232.1 559.21 234.53 556.41 235.65 553.71 235.8 551.41 234.73 548.95 232.67 546.55 230.34 543.71 228.67 540 227.3 538.14 226.91 536.23 226.84 534.5 227.16 532.72 228.11 530.49 229.64 528.81 231.13 527.58 232.94 526.87 234.63 526.41 237.34 526.69 246.42 525.7 250.08 523 253.11 519.43 255.37 517.2 256.29 515.7 256.92 511.7 258.97 506.96 262.37 503.2 264.28 500.08 264.73 495.37 264.34 491.11 263.42 487.74 263.7 486.08 264.41 478.49 268.53 474.11 269.51 469.56 269.71 465.6 268.95 463.44 268.1 457.8 264.37 455.34 263.49 451.99 263.69 449.66 264.98 447.6 268.04 447.31 271.08 449.26 273.58 451.75 275.08 454.57 275.82 458.07 277.62 464.58 283.03 467.15 285.75 467.8 288.31 467.14 290.95 465.2 293.29 461.11 296.11 458.94 299.36 458.43 302.57 458.09 307.2 457.1 311.78 455.4 314.58 452.41 317.7 449.89 320.99 446.97 326.91 446.16 329.98 446.15 331.24 447.05 334.07 449.11 336.91 452.27 339.51 454.16 341.71 455.34 343.78 455.37 345.23 455.15 346.74 454.64 347.95 453.75 349.13 453.14 349.68 436.68 362.5 434.76 364.09 433.07 365.83 431.66 367.66 430.67 369.09 430.07 370.92 430.05 372.17 430.49 373.8 431.16 374.94 432.04 375.93 433.35 376.8 435.18 377.47 436.96 377.62 438.73 377.37 440.5 376.78 444.26 375.55 445.62 375.22 447.84 375.1 454.93 375.61 457.11 376.26 459.37 378.02 460.41 379.9 460.67 381.2 462.68 394.36 462.77 396.04 462.64 397.55 462.22 399.18 461.54 400.69 460.42 402.18 459.49 402.97 458.06 403.69 457.04 404.01 455.13 404.88 453.34 406.56 452.53 408.15 452.29 410.6 453.12 412.87 454.59 414.48 456.51 415.48 458.64 415.87 461.16 415.5 463.35 414.47 464.95 413.33 466.92 412.4 468.56 411.92 470.41 411.51 473.19 410.69 475.43 410.51 478.02 411.11 480.25 412.38 481.76 414.02 482.57 415.69 482.83 416.72 482.91 417.65 483.26 418.89 483.9 420.12 484.75 421.2 485.29 422.38 485.51 423.7 485.53 425.34 485.35 426.75 484.91 428.39 484.34 429.63 483.22 430.94 481.86 431.92 480.19 432.69 477.35 433.44 475.16 433.66 472.64 434.45 464.78 439.44 463.25 440.85 462.1 442.92 461.78 444.59 461.78 447.65 461.42 449.47 460.56 451.41 459.5 452.8 458.98 453.36 458.56 453.75 453.1 458.23 452.76 458.58 452.11 459.29 451.73 459.93 451.42 460.6 449.13 466.72 448.89 467.87 448.88 468.9 449.28 470.25 450.24 471.77 451.2 472.92 452.13 473.72 453.08 474.31 454.25 474.85 455.55 475.21 457.05 475.51 458.87 475.73 460.95 475.9 462.97 476.38 465.2 477.14 466.98 477.93 472.37 480.59 474.11 481.73 475.25 483.15 475.94 484.64 476.04 486.46 475.84 487.72 475.34 488.89 474.35 490.09 473.75 490.67 466.26 496.06 465.12 497.17 464.2 498.68 463.89 499.77 463.79 500.59 463.83 501.61 464.12 502.62 464.52 503.54 464.7 504.31 464.7 505.23 463.53 515.99 463.25 517.25 462.7 518.57 461.84 520.02 460.89 521.29 459.84 522.55 458.57 523.83 457.39 524.88 456.31 525.72 455.25 526.88 454.61 527.97 454.2 529.27 454 530.64 453.79 531.71 453.38 532.65 452.89 533.47 452.32 534.2 451.34 535.07 450.33 535.59 449 535.95 447.36 536.03 445.66 535.85 443.79 535.28 442.25 534.1 441.1 532.73 439.92 530.71 439.09 529.24 437.73 527.9 436.1 526.95 434.02 526.45 432.89 526.4 431.86 526.48 430.73 526.73 429.42 527.29 428.06 528.29 423.27 533.23 422.21 534.12 420.7 535.09 418.86 535.93 417.09 536.41 415.25 536.67 414.2 536.77 412.72 537.24 411.46 537.95 410.47 538.8 409.66 539.84 409.17 540.91 408.91 541.86 408.83 542.54 408.68 544.88 408.32 546.07 407.46 547.19 406.51 548.12 404.95 549.01 403.66 549.45 401.79 549.76 399.64 549.82 397.4 550.18 395.25 550.92 393.25 551.86 391.87 552.84 390.98 553.65 390.32 554.52 389.75 555.64 389.55 556.33 389.54 556.9 389.65 557.58 390.1 559.15 392.54 565.15 393.24 566.5 394.61 568.08 395.9 569.63 396.64 570.88 397.35 572.46 397.75 574.23 398 576.87 398.2 580.04 398.46 585.73 398.61 587.03 399.26 588.73 400.45 590.24 402.32 591.5 404.56 592.86 406.15 593.97 407.39 595.39 407.89 596.39 408.2 597.2 408.77 599.61 409.15 601.94 409.9 604.98 410.82 607.04 411.92 608.83 413.51 610.36 415.87 611.44 418.56 612.42 420.47 613.19 422.29 614.26 424.13 615.72 426.21 617.38 430.98 620.19 433.18 621.57 433.85 622.21 439.26 622.94 453.1 624.56 451.02 637.96 448.01 657.12 458.34 658.51 459.12 657.36 461.52 653.78 463.15 653.08 466.4 654.1 469.33 657.14 469.94 657.69 470.56 658.25 474.54 660.85 485.43 600.09 488.05 585.61 488.41 581.31 531.22 586.41 551.05 599.11 594.15 603.98 600.47 610.51 623.29 623.24 633.79 624.47 653.15 626.74 656.35 633.13 661.3 631.79 664.75 629.02 669.47 628.65 677.34 629.57 676.7 633.26 682.8 651.24 629.9 665.71 634.98 683.31 629.92 684.03 621.5 688.53 609.34 700.73 652.15 734.15 653.34 734.07 644.18 785.13 658.13 785.89 672.22 795.42 681.52 788.67 682.26 784.57 718.86 784.3 708.15 843.17 704.04 840.79 691.05 840.01 681.8 890.9 681 897.27 680.85 898.49 680.53 900.28 677.03 919.02 662.26 998.47 Z" fill="#ffff7f" stroke="#000000"/>
<path d="M 662.26 998.47 664.51 1002.08 669.51 1001.57 685.87 985.71 689.41 984.4 703.26 975.55 712.12 974.75 718.36 969.11 722.87 967.95 725.81 965.32 730.35 961.67 740.93 960.06 745.14 961.07 748.7 961.77 748.85 961.71 750.01 962.61 751.17 963.5 744.17 973.03 736.9 977.13 736.33 980.55 733.81 982.6 753.35 985.46 751.78 994.26 763.67 995.93 767.41 987.6 799 991.62 794.11 1022.85 767.35 1019.49 751.11 1022.88 744.58 1022.02 739.61 1025.18 738.75 1025.06 738.23 1028.19 736.97 1025.29 733.94 1025.14 730.95 1025.55 723.88 1024.68 717.35 1025.91 712.21 1029.03 705.59 1029.49 696.08 1029.18 677.82 1031.58 669.04 1033.24 663.55 1069.1 660.27 1089.38 654.26 1120.03 653.58 1123.59 638.41 1121.61 626.75 1120.09 617.02 1180.11 600.77 1179.41 590.51 1179.02 581.52 1181.05 574.48 1179.89 572.21 1194.58 560.95 1192.95 552.09 1191.85 550.79 1192.32 516.27 1188.09 515.43 1193.21 516.83 1193.4 516.27 1196.96 511.41 1227.75 546.77 1232.2 541.35 1267.67 469.83 1257.48 466.35 1277 439.21 1267.17 426.89 1265.37 425.79 1265.75 424.73 1266.12 418.14 1259.12 417.06 1253.67 414.16 1250.2 411.1 1247.96 407 1240.94 399.35 1244.28 394.04 1244.63 395.27 1248.2 394.15 1251.09 392.88 1250.2 378.09 1248.3 342.69 1243.36 342.07 1243.22 344.3 1230.73 345.82 1222.17 348.58 1206.93 334.36 1205.03 321.72 1203.33 299.7 1200.35 280.38 1197.67 269.92 1196.23 256.83 1194.36 252.44 1193.7 251.94 1195.7 232.95 1208.88 223.74 1198.59 189.28 1160.09 181.48 1151.15 168.64 1136.38 158.52 1124.23 157.32 1123.03 151.06 1116.15 148.56 1113.46 146.54 1110.67 144.75 1108.6 148.06 1106.04 151.06 1103.73 151.66 1103.02 154.45 1101.08 163.58 1094.46 166.53 1092.52 175.6 1085.73 176.5 1085.1 187.68 1076.74 191.98 1073.81 194.19 1072.28 199.66 1068.4 207.01 1062.35 198.49 1061.19 192.76 1060.36 188.53 1059.68 186.03 1059.28 169.2 1056.94 171.68 1060.39 163.7 1066.12 160.08 1068.9 147.8 1077.92 142.89 1072.85 139.43 1067.32 136.96 1066.33 133.4 1062.38 128.26 1057.13 130.97 1051.54 123.7 1050.59 113.71 1048.98 103.64 1047.61 99.75 1047.16 94.57 1046.41 96.3 1036.06 95.98 1036.03 95.47 1035.92 95.09 1035.87 94.45 1036.14 94.01 1036.61 93.38 1037.25 92.82 1037.63 91.52 1038.21 90.86 1038.33 90.38 1038.22 89.85 1037.6 89.29 1036.62 89.03 1036.19 88.69 1036.06 88.43 1036.18 88.08 1036.71 87.84 1036.94 87.46 1036.99 87.08 1036.83 86.97 1036.56 87.15 1035.96 87.23 1035.37 87.22 1035.01 86.97 1034.62 86.31 1034.44 85.97 1034.51 85.48 1034.83 84.96 1034.97 84.48 1034.83 83.97 1034.33 83.77 1033.71 83.69 1032.92 83.35 1032.56 82.93 1032.34 82.37 1032.43 81.66 1032.67 81.03 1032.88 80.58 1033.16 79.94 1033.44 78.82 1033.47 78.02 1033.25 77.39 1032.81 76.66 1032.67 75.87 1032.41 75.43 1032.23 75.15 1031.94 74.41 1030.87 73.38 1029.65 72.59 1028.97 71.83 1028.25 70.92 1027.85 70.29 1027.96 69.65 1028.2 68.95 1028.61 67.34 1029.78 67.12 1029.78 66.2 1029.98 64.85 1029.76 64.29 1029.43 64.29 1028.79 64.53 1028.4 65.26 1028.02 66.9 1027.64 67.39 1027.43 67.87 1026.83 67.76 1026.37 66.92 1025.89 65.48 1025.59 63.81 1025.69 61.01 1026.09 59.29 1026.23 57.36 1026.49 56.72 1026.74 56.76 1027.2 57.55 1028.03 57.26 1028.85 55.69 1030.18 54.92 1030.64 54 1030.35 52.61 1029.38 51.22 1028.87 50.63 1028.29 49.69 1026.58 48.78 1025.29 47.63 1024.11 45.49 1022.56 45.33 1022.09 45.66 1021.52 45.51 1021.09 45.07 1020.63 45.12 1019.6 45.01 1019.28 44.08 1019.22 43.4 1019.14 38.37 1047.23 38.1 1047.99 37.66 1048.78 37.26 1048.2 37.41 1047.17 37.37 1046.83 36.59 1046.4 34.72 1045.75 34.35 1045.37 34.49 1044.99 35.14 1044.55 35.46 1043.92 35.29 1042.91 34.5 1041.47 34.17 1040.37 35.12 1037.78 35.18 1036.65 34.67 1036.02 33.87 1035.94 32.21 1036.55 31.35 1036.35 30.77 1035.61 30.69 1034.21 30.06 1033.52 28.29 1032.31 27.55 1030.99 26.61 1028.41 26.85 1027.36 27.89 1025.67 27.79 1024.93 27.23 1024.66 26.52 1024.84 25.53 1024.75 24.41 1023.97 22.93 1022.34 21.79 1020.49 19.99 1018.89 19.3 1018.67 17.45 1018.79 15.04 1018.81 11.78 1018.67 8.89 1019.1 7.67 1019.2 6.67 1018.79 5.96 1017.95 5.97 1016.82 5.52 1016.16 4.96 1016.01 4.28 1016.54 3.49 1017.02 1.4 1016.32 1 1014.21 1.59 1014.06 3.7 1002.96 5.48 993.51 8.71 974.27 11.85 957.18 13 950.57 13.52 947.6 16.03 933.32 16.27 932.16 18.43 919.93 20.75 906.85 21.48 902.7 22.91 894.57 24.95 882.96 25.93 877.41 25.81 874.87 25.75 874.07 28.61 857.94 29.48 852.99 29.73 851.57 31.19 843.34 33.33 831.65 37.27 810.19 40.17 795.52 82.15 800.95 105.29 803.97 109.44 804.45 116.18 805.38 120.54 805.96 123.08 806.25 126.58 806.72 131.62 807.35 133.01 807.19 137.06 807.69 135.41 817.65 135.25 818.55 133.87 825.72 132.89 832.43 132.79 832.98 131.28 841.58 130.11 848.29 129.26 852.73 128.52 856.92 128.43 857.49 129.11 857.59 139.51 859.01 142.48 859.42 152.87 860.83 160.49 862.08 173.37 863.83 179.85 864.82 186.24 865.76 195.56 867.06 199.72 867.63 201.48 867.86 207.76 868.77 206.68 875.04 205.72 880.19 204.67 886.16 204.62 889.7 204.94 891.02 205.97 893.59 206.76 894.78 208.45 896.39 210.09 897.21 211.78 897.6 219.96 898.67 220.96 898.79 238.49 900.93 248.54 902.15 251.73 902.65 255.44 903.09 258.62 903.53 266.89 904.58 267.87 904.73 269.38 904.91 272.4 905.31 280.56 906.39 289.7 907.64 291.04 907.83 295.06 908.38 297.69 908.68 298.25 908.74 302.62 909.31 322.75 912.34 325.07 912.64 329.23 913.2 335.88 914.08 338.79 914.48 347.18 915.48 348.39 915.64 357.75 916.9 368.76 918.34 368.2 921.47 369.26 921.14 371.76 921.47 372.04 919.87 372.1 918.84 383.15 920.47 397.48 922.08 405.57 923.56 411.72 924.33 426.43 926.11 440.09 927.99 450.14 929.14 454.6 929.78 462.68 930.94 467.59 931.62 474.96 932.77 488.89 934.52 497.67 935.83 504.06 936.78 516.38 938.38 519.46 938.2 535.15 940.49 545.09 941.85 548.44 942.14 563.68 944.34 566.53 944.92 569.3 943.61 574.98 941.29 573.47 944.49 572.33 947.45 573.71 949.6 575.27 949.77 576.92 951.1 579.13 953.51 592.03 959.57 595.42 959.15 601.04 960.1 605.17 962.69 608.38 962.34 621 966.99 622.85 974.65 632.76 978 636.41 982.76 644.23 986.63 649.94 992.49 660.77 998.18 662.26 998.47 Z" fill="#ffff7f" stroke="#000000"/>
</g>
</svg>