<?xml version="1.0"?>
<svg xmlns="http://www.w3.org/2000/svg" version="1.2" baseProfile="tiny" width="800" height="933" viewBox="0 0 800 933" stroke-linecap="round" stroke-linejoin="round">
<g id="QLD">
<path d="M 251.61 594.77 251.4 594.35 250.18 593.28 247.29 592.55 245.54 590.8 244.18 589.44 243.46 588.15 243.23 586.33 242.39 585.46 241.57 584.1 240.75 582.68 240.03 581.46 240.14 579.79 240.5 577.87 240.4 575.26 237.32 572.24 237.66 569.02 240.16 568.19 241.59 567.05 241.7 564.33 242.59 560.11 243.37 558.2 244.56 556.91 246.13 556.31 247.7 556.32 247.84 554.16 248.23 552.21 249.73 549.69 250.64 547.29 251.12 544.49 251.56 540.85 252.58 539.84 253.77 538.99 255.59 539.04 257.29 538.16 258.35 537.35 259.5 536.09 260.62 534.11 261.94 531.88 263.83 530.46 265.51 530.05 267 528.83 268.95 528.53 269.6 527.54 269.8 526.3 269.92 525.73 270.09 525.09 274.09 524.42 273.74 523.9 273.32 523.35 273.08 522.94 273.41 519.7 272.19 518.36 271.14 518.75 270.22 518.75 269.55 517.82 268.73 516.73 268.17 514.34 267.86 512.29 267.51 510.85 268.32 508.88 268.77 506.7 268.38 505.31 267.49 504.58 267.57 503.26 268.15 502.37 267.08 500.7 266.98 499.9 266.7 498.3 266.74 497.89 267.15 497.36 267.71 496.67 268.45 495.28 268.17 494.24 267.79 493.02 267.69 492.38 267.84 491.65 268.04 490.9 268.43 490.08 268.98 489.28 269.61 488.72 269.77 488.3 269.64 487.85 269 486.69 269.06 485.52 269.02 484.55 268.77 483.98 268.41 483.24 267.47 481.89 266.76 480.68 266.95 479.4 267.68 477.67 269.5 474.63 270.99 472.49 272.38 469.93 274.7 466.48 276.87 464.52 276.24 462.95 277.16 459.87 278.02 458.41 281.3 456.87 284.11 456.03 284.64 452.53 285.78 449.63 285.69 446.22 286.75 444.66 286.97 443.52 285.48 441.16 283.58 439.24 283.09 438.4 283.65 437.63 255.82 435.64 238.5 433.88 238.47 434.13 238.2 434.17 237.95 434.18 237.65 434.28 237.31 434.34 237.09 434.26 236.64 434.15 236.39 434.16 236.09 434.28 235.85 434.54 235.64 434.77 235.39 434.91 235.11 434.92 234.91 434.82 234.72 434.66 234.5 434.53 234.25 434.36 234.07 434.38 233.82 434.56 233.65 434.82 233.39 435.15 233.12 435.59 232.94 435.81 232.74 435.89 232.54 435.82 232.36 435.58 232.29 435.26 232.27 434.95 232.33 434.69 232.31 434.45 232.22 434.33 231.96 434.31 231.3 434.39 230.88 434.49 230.31 434.56 229.88 434.59 229.4 434.73 229.16 434.88 228.76 435.1 228.42 435.33 228.34 435.64 228.49 435.81 228.8 435.99 229.13 436.13 229.33 436.36 229.47 436.61 229.43 436.92 229.2 437.3 228.99 437.44 228.75 437.69 228.64 437.91 228.59 438.19 228.51 438.64 228.38 438.88 228.21 439.04 227.98 439.1 227.83 438.99 227.69 438.78 227.58 438.52 227.44 438.29 227.19 438.06 226.97 438.02 226.81 438.13 226.66 438.3 226.55 438.67 226.38 439.2 226.21 439.46 225.76 439.82 225.34 440.14 224.78 440.45 224.44 440.45 224.12 440.24 223.86 439.96 223.38 439.66 223.12 439.23 222.98 438.9 222.89 438.3 222.71 437.85 222.33 437.56 221.94 437.46 221.28 437.21 220.96 437.06 220.55 436.77 220.17 436.45 219.42 436.26 219.02 436.27 218.23 436.37 217.66 436.51 217.19 436.68 216.81 436.76 216.46 436.66 216.24 436.23 216.22 436.12 216.27 435.78 216.43 435.58 216.64 435.33 216.8 435.04 216.77 434.72 216.62 434.4 216.5 434.18 216.1 433.86 215.87 433.7 215.58 433.66 215.29 433.7 215.16 433.82 215.06 434.04 215 434.17 214.79 434.4 214.56 434.47 214.36 434.5 214.15 434.43 213.95 434.28 213.42 433.64 213.12 433.26 212.91 433.08 212.68 432.82 212.36 432.28 212.21 432.17 211.91 431.9 211.57 431.57 211.3 431.24 211.1 430.88 210.77 430.38 210.43 429.88 210.21 429.65 210.03 429.42 210.01 429.39 209.82 429.01 209.64 428.53 209.52 428.07 209.47 427.84 209.49 427.53 209.47 427.09 209.43 426.56 209.42 426.22 209.43 425.62 209.57 424.95 209.57 424.77 209.54 424.48 209.5 424.29 209.38 424.05 209.32 423.9 209.29 423.83 209.06 423.6 208.77 423.41 208.21 423.16 207.5 422.87 207.37 422.84 206.95 422.84 206.49 422.78 206.22 422.68 205.92 422.44 205.67 422.13 205.27 421.76 204.69 421.43 204.31 421.04 204.04 420.98 203.53 420.76 203.38 420.72 203.13 420.77 202.8 421 202.56 421.73 202.39 422.03 202.25 422.2 202.07 422.25 201.74 422.21 201.54 422.05 201.4 421.8 201.33 421.45 201.4 420.84 201.52 420.26 201.48 419.94 201.32 419.66 201.04 419.47 200.44 419.36 199.9 419.41 199.24 419.44 198.65 419.48 198.31 419.68 197.64 419.97 197.15 420.67 196.78 420.96 196.53 421.18 196.24 421.59 195.95 422.02 195.82 422.31 195.61 422.88 195.29 423.56 195.22 424.01 195.22 424.25 195.18 424.64 195.23 425.03 195.24 425.41 195.22 425.97 195.22 426.41 195.31 426.87 195.27 427.04 195.28 427.34 195.23 427.65 195.34 428.07 195.48 428.51 195.79 428.81 195.98 429.08 196.14 429.29 196.34 429.54 196.4 429.82 196.39 430.13 196.41 430.43 196.25 430.69 195.99 430.95 195.68 431.16 195.16 431.31 194.62 431.28 194.08 431.34 193.76 431.34 193.56 431.48 193.39 431.66 193.29 431.95 193.2 432.38 193.13 432.65 193.04 432.86 192.69 433.11 192.55 433.4 192.55 433.63 192.64 433.87 192.95 434.09 193.36 434.31 193.61 434.53 194.19 434.81 194.45 434.96 194.6 435.47 194.76 435.81 194.6 436.13 194.22 436.37 193.44 436.62 192.84 436.83 191.56 436.98 190.48 436.91 189.5 436.94 188.53 437.38 188.21 437.86 187.29 437.88 185.91 438.24 184.9 438.39 183.77 438.64 181.9 439.11 180.53 439.46 179.75 439.64 178.97 440.02 178.24 440.23 177.77 440.68 177.42 441.26 177.19 441.77 176.91 442.24 176.56 442.63 176.35 442.82 176.12 442.88 175.97 443.33 175.9 444.1 176.08 444.55 176.24 445.12 176.29 445.57 176.18 445.91 175.99 446.62 175.88 447.09 175.65 447.52 175.45 447.87 175.13 448.14 174.76 448.26 174.51 448.6 174.24 448.81 173.83 448.93 173.15 448.71 172.5 448.85 171.82 448.85 170.59 448.3 169.42 447.8 168.83 447.47 167.78 447.58 166.69 447.91 165.42 448.34 164.18 448.7 162.83 448.88 161.75 448.81 161.07 448.59 160.25 448.23 159.54 447.44 159.27 446.57 159.16 445.6 159.24 444.77 158.75 444.3 158.3 443.68 157.71 443.34 157.59 443.32 156.69 443.14 155.94 442.78 154.85 442.39 154.16 442.2 153.31 441.61 152.48 441.1 151.25 440.85 150.35 440.28 149.48 439.41 148.92 438.66 148.32 437.5 147.66 436.52 147.15 435.76 129.97 452.01 125.43 447.56 124.69 447.61 121.57 444.55 121.32 443.88 120.65 442.27 120.2 440.35 120.77 437.25 121.87 434.7 115.92 434.38 114.81 435.92 113.84 436.84 113.09 437.46 112.13 438.32 111.02 439.28 109.6 440.53 108.45 441.14 107.34 441.43 106.38 441.76 105.33 442.14 104.85 442.44 104.48 442.72 104.14 443.34 103.94 443.88 103.8 444.66 103.79 445.41 103.83 446.06 103.89 446.82 104.04 447.56 104.2 448.25 104.46 448.92 104.75 449.61 105.1 450.18 105.22 450.46 105.31 451.47 105.1 452.63 104.79 453.74 104.63 455.09 104.72 456.68 102.88 459.25 102.54 459.21 101.24 459.09 100.97 459.06 99.32 458.89 94.47 458.39 93.18 470.12 85.82 470.71 98.81 414.17 100.59 397.97 97.69 387.43 97.56 386.87 95.8 380.41 95.72 380.13 80.29 360.77 81.42 361.16 82.64 361.25 83.24 361.21 84.22 361.3 84.9 361.64 85.64 361.64 83.9 360.39 84.01 359.85 88.23 360.11 86.86 355.87 87.43 352.58 84.53 350.98 74.22 349.47 75.33 342.48 64.81 341.54 64.38 341.51 56.07 340.77 49.17 340.16 45.01 319.09 43.93 313.55 43.71 313.44 43.45 313.27 43.27 313.02 43.09 312.68 42.98 312.43 42.89 312.1 42.76 311.73 42.6 311.47 42.35 311.24 41.98 311.02 41.52 310.77 41.18 310.52 40.99 310.27 40.86 310.05 40.88 309.76 40.81 309.38 40.7 309.02 40.61 308.61 32.77 309.54 32.34 309.7 32.2 310.15 31.9 310.63 31.43 311.18 31.03 312.17 30.77 312.9 30.65 313.52 30.76 314.36 30.84 315.18 30.47 316.35 29.65 317.67 28.55 318.66 27.04 319.55 26.12 319.99 24.72 320.74 23.33 321.22 22.22 321.44 21.49 321.29 20.7 320.98 19.89 320.72 18.86 320.65 17.69 320.81 15.91 321.25 14.65 321.92 13.51 322.7 12.71 323.42 11.89 324.15 11.24 324.85 10.42 325.52 9.86 325.72 10.8 324.64 9.31 322.64 8.99 322.19 1 311.43 10.81 204.1 14.6 164.55 43.28 167.15 59.32 168.6 62.54 167.5 63.3 166.14 63.51 165.83 63.74 165.58 64.03 165.34 64.35 165.26 64.42 165.2 64.48 165.02 64.71 164.66 64.85 164.33 65.19 163.97 65.32 163.93 65.73 163.6 66.12 163.38 66.36 163.29 66.47 163.19 66.47 163.18 66.51 162.89 66.5 162.45 66.59 162.1 66.7 161.9 67 161.64 67.57 161.62 68.12 161.75 68.57 161.73 68.66 161.69 68.72 161.58 68.76 161.43 68.73 161.29 68.8 161.1 68.87 160.97 69.05 160.75 69.45 160.47 69.81 160.6 69.98 160.75 70.27 161.05 70.38 161.1 70.48 161.08 70.55 161.03 70.86 160.66 71.24 160.06 71.34 159.85 72.09 158.65 72.33 158.15 72.87 157.27 72.92 157.17 72.91 156.75 72.85 156.45 72.85 155.96 73.02 155.44 73.13 154.89 73.42 154.19 74.01 153.21 74.33 152.83 74.63 152.63 74.88 152.55 75.38 152.27 75.73 152.02 76.19 151.79 76.33 151.75 76.54 151.65 77 151.41 77.27 151.33 77.36 151.32 77.21 151.14 76.91 150.62 76.79 150.02 76.72 149.85 76.56 149.66 76.09 149.36 75.39 149.1 75.07 149.07 74.62 149.11 74.09 148.99 74.12 148.42 74.2 148.22 74.42 148.01 74.86 147.65 75.34 147.37 76.4 147.09 77.48 146.99 78.01 146.99 78.43 147.05 78.86 146.98 79 146.87 79.07 146.74 79.13 146.49 79.11 146.34 79.16 145.81 79.15 145 79.04 144.87 78.89 144.87 78.5 145.01 78.33 145.09 77.65 144.94 77.32 144.79 76.76 144.65 76.27 144.61 75.63 144.63 75.15 144.59 74.56 144.39 74.1 144.19 73.78 144 73.36 143.59 73.25 143.32 73.25 142.76 73.46 142.36 73.67 142.08 73.74 141.89 73.79 141.5 73.74 141.1 73.55 140.6 73.45 139.5 73.21 138.52 73.11 138.38 73.11 138.29 73.06 138.2 72.89 138 72.71 137.88 72.52 137.84 71.95 137.51 72.89 136.24 73.08 135.89 73.13 135.56 73.02 135.26 72.91 135.1 72.75 134.99 72.68 134.98 72.45 134.79 72.28 134.55 72.04 133.93 72.04 133.38 72.1 133.03 72.21 132.77 72.47 132.39 72.88 132.23 73.23 132.19 73.58 132.22 73.65 132.27 73.94 132.32 74 132.36 74.19 132.38 74.3 132.44 74.64 132.48 74.86 132.42 75.13 132.26 75.82 131.75 76.28 131.57 77.01 131.4 77.48 131.2 77.75 131.05 78.34 130.46 78.85 129.6 78.88 129.46 79.07 129.2 79.26 128.8 79.42 128.34 79.51 127.98 79.68 126.68 79.65 126.43 79.55 126.03 79.5 125.96 79.19 125.92 78.66 125.94 77.71 126.03 77.4 125.92 76.95 125.55 76.72 125.26 76.53 124.97 76.4 124.62 76.34 124.24 76.36 124.15 76.32 123.85 76.39 123.31 76.34 123.02 76.23 122.73 76.22 122.51 76.13 122.23 75.66 122 75.32 121.77 75.07 121.59 74.92 121.55 74.22 121.06 73.79 120.83 73.59 120.76 72.83 120.61 72.44 120.43 72.01 120.15 71.39 119.54 71.09 119.18 70.55 118.13 70.55 117.87 70.78 117.46 70.81 117.32 71.03 116.67 71.18 115.82 70.96 115.34 38.05 112.33 19.88 110.67 24.49 61.79 25.2 56.35 27.41 31.69 28.86 33.01 29.92 33.68 32.8 32.57 34.13 31.27 35.26 30.38 35.8 29.63 36.58 29.17 38.79 29.19 40.46 29.21 41.97 28.94 43.12 28.58 44.68 27.94 46.38 27.06 49.92 24.66 51.5 23.3 52.84 22.03 54.31 20.19 54.78 18.85 56.18 17.96 57.65 17.08 59.12 15.87 60.25 14.41 61.12 13.58 62.25 13.65 63.78 13.22 64.38 12.45 65.65 10.93 67.18 10.68 69.23 11.59 70.76 10.13 72.04 8.16 73.52 5.61 74.45 4.47 76.53 3.3 77.5 1 78.83 1.39 80.46 1.69 81.69 1.84 83.13 1.61 84.9 1.72 86.98 1.5 88.17 1.51 89 2.08 88.89 3.61 88.98 4.94 88.93 5.13 88.18 5.61 87.34 6.03 85.8 6.64 84.32 7.42 82.23 9.2 80.82 11.58 79.41 13.85 77.73 14.91 76.03 16.21 75.13 17.34 75.77 20.03 76.11 21.89 76.86 23.13 77.37 24.8 77.51 26.92 77.34 28.92 77.85 30.63 78.36 32.02 79.46 33.86 79.12 35.75 77.21 36.97 75.76 37.53 75.23 38.66 73.46 39.28 74.36 41.43 74.41 43.77 75.43 46.49 72.56 50.9 72.8 51.93 76.16 54.42 76.36 55.21 75.89 56.42 75.21 57.05 69.19 56.33 64.17 62.91 64.09 64.47 66.38 64.85 65.94 68.84 67.29 69.32 67.43 71.17 69.1 72.29 70.66 75.71 70.68 76.8 70.42 78.29 77.08 73.15 80.15 72.86 83.21 72.96 84.58 73.67 85.7 75.7 86.89 77.89 88.66 78.92 91.16 79.56 93.25 80.9 95.5 81.62 98.98 81.02 100.03 81.26 101.47 82.83 102.35 84.24 103.63 86.11 104.22 87.63 105.71 90.08 107.5 92.48 108.64 94.56 109.07 96.2 110.64 97.88 111.61 98.69 113.62 99.89 114.89 101.18 116.87 102.45 120.3 104.37 121.86 104.24 126.67 103.92 128.81 103.86 132.34 104.29 135.34 105.33 139.11 105.68 141 106.22 142.25 107.34 143.83 109.28 145.71 110.75 147.27 110.92 148.83 111 150.64 111.71 151.95 113.03 153.25 114.65 155.21 116.44 156.1 117.29 157.14 117.63 158.41 117.74 160.07 117.77 161.93 117.86 163.37 117.8 165.02 117.6 166.41 117.79 168.16 119.36 169.73 121.45 170.65 122.49 171.51 123.6 172.51 124.29 174.44 124.66 176.23 125.23 178.39 125.38 179.81 125.81 181.11 126.33 182.51 126.89 184.13 127.92 185.56 129.1 188.86 128.65 193.74 130.43 197.14 132.07 199.88 135.05 201.01 137.21 204.37 137.89 205.82 138.18 209.2 138.06 212.31 137.38 214.21 137.39 216.06 137.95 217.95 139.14 225.53 132.26 233.2 126.05 234.19 124.99 235.87 123.46 235.98 123.68 236.07 124.11 236.18 124.29 236.93 125.07 237.63 126.14 238.01 126.61 238.52 127.11 238.71 127.32 238.98 127.75 239.18 128.16 239.81 129.21 240.74 130.55 241.46 131.45 241.74 131.75 242 131.98 242.64 132.44 242.83 132.56 243.37 132.72 243.89 132.74 244.06 132.84 244.47 133.23 244.94 133.64 245.06 133.73 245.82 133.99 246.01 134.14 245.96 134.39 245.96 134.56 246.14 135.06 246.45 135.59 247.09 136.53 247.53 137.09 248.03 137.84 249.17 139.31 249.95 140.07 250.21 140.42 250.48 140.92 250.72 141.29 251.12 141.75 251.33 141.91 251.95 142.77 252.72 143.63 254.33 145.61 254.62 146.04 255.08 146.59 255.61 147.12 256.38 148.06 256.72 148.4 257.37 148.94 258.5 150.18 259.08 150.64 260.12 151.24 260.34 151.39 260.46 151.53 260.64 151.84 261.45 152.64 261.76 152.9 262.62 153.78 262.74 153.85 263.38 154.46 263.45 154.48 264.28 155.47 266.73 157.75 267.11 157.98 267.48 158.27 268.76 159.41 269.87 160.12 270.31 160.54 270.53 160.72 270.99 161 271.25 161.13 271.37 161.15 271.47 161.13 271.6 161.05 271.87 161.01 271.96 161.07 272.41 161.16 272.49 161.14 272.6 160.99 272.92 160.98 273.22 160.93 273.7 160.52 274.12 160.2 274.27 160.12 274.63 160.11 275.45 160.59 276.4 161.31 277 161.82 277.33 162.08 277.73 162.31 278.65 162.99 279.93 164.06 280.71 164.67 280.96 164.89 281.73 165.8 282.58 166.48 283.04 166.8 284.15 167.73 284.99 168.34 285.27 168.53 286.11 169.08 286.37 169.22 286.55 169.26 286.7 169.37 287.03 169.48 287.25 169.61 287.83 169.71 288.58 169.49 289.38 169.08 289.59 168.92 289.74 168.72 289.78 168.48 289.76 168.36 289.81 168.14 289.92 167.96 290.32 167.55 290.64 167.08 290.82 166.95 290.95 166.88 291.19 166.84 291.34 166.86 291.65 167.1 291.94 167.21 292.07 167.3 292.25 167.34 292.38 167.42 292.54 167.47 293.17 167.81 293.96 168.46 294.36 168.7 294.67 168.95 294.8 169.08 295.21 169.51 295.39 169.72 295.63 170.11 295.9 170.45 296.11 170.59 296.37 170.65 296.8 170.62 297.03 170.65 297.52 170.78 297.8 170.88 298.18 171.12 298.7 171.62 298.88 171.89 299.25 172.22 299.45 172.49 299.61 173.11 299.72 173.32 299.76 173.48 299.55 173.74 299.55 173.99 299.66 174.14 299.71 174.32 299.6 174.56 299.6 174.6 299.5 175.18 299.46 175.25 299.34 175.79 299.37 175.84 299.29 176.4 299.08 177.82 298.9 179.51 298.85 179.98 298.81 180.62 298.8 180.75 298.77 182.1 298.76 182.69 298.78 184.46 298.79 185.35 298.77 185.62 298.75 186.13 298.72 186.44 298.66 187.05 298.7 187.95 298.77 189.31 298.85 190.77 298.83 190.81 298.87 191.66 299.08 193.02 299.17 193.61 299.27 194.79 299.34 195.2 299.47 195.65 299.59 196.35 299.56 196.39 299.64 196.83 299.99 197.92 300.07 198.27 300.35 199.45 300.51 199.97 300.92 201.19 301 201.64 301.46 202.86 301.9 203.89 302.05 204.45 302.07 204.53 302.3 205.15 302.74 205.92 303.02 206.63 303.26 207.06 303.35 207.34 303.46 207.51 303.57 207.79 303.81 208.22 304 208.68 304.36 209.38 304.41 209.59 304.89 210.64 305.03 210.95 305.6 211.85 305.71 212.13 305.93 212.5 305.98 212.65 306.28 213.23 306.3 213.34 306.5 213.61 306.52 213.65 306.79 214.19 307.06 214.62 307.87 216.13 307.93 216.24 307.97 216.39 308.17 216.68 308.67 217.6 309.18 218.36 309.64 219.11 309.93 219.71 310.29 220.29 310.6 220.68 310.75 221.03 311.35 221.84 311.57 222.14 312.16 223.01 312.27 223.34 313 224.29 313.25 224.7 313.43 225.14 313.85 225.59 314.33 226.42 314.91 227.05 315.15 227.4 315.26 227.57 315.61 228.02 316.4 228.92 317.31 229.86 317.62 230.15 317.89 230.4 318.08 230.57 318.78 231.28 319.41 231.89 319.59 231.99 320.18 232.45 321 232.99 321.65 233.34 321.85 233.4 322.55 233.86 322.87 234.03 322.94 234.03 323.19 234.15 323.64 234.29 323.71 234.36 324.76 234.76 325.24 234.91 326.94 235.14 327.92 235.22 328.93 235.18 329.29 235.12 329.44 235.03 329.73 234.87 329.78 234.59 329.93 234.43 330.22 234.18 330.59 234.09 330.49 233.99 330.45 233.87 330.42 233.79 330.37 233.62 330.36 233.55 330.36 233.46 330.35 233.39 330.38 233.31 330.4 233.22 330.43 233.13 330.48 233.07 330.58 232.95 330.62 232.89 330.71 232.76 330.76 232.69 330.8 232.64 330.84 232.6 330.9 232.5 330.93 232.38 330.94 232.3 330.95 232.09 330.96 231.91 330.95 231.82 330.97 231.63 330.96 231.56 330.96 231.49 330.95 231.44 330.97 231.36 330.99 231.14 330.98 231.05 330.98 230.95 331.03 230.84 331.05 230.83 331.08 230.75 331.15 230.65 331.21 230.6 331.35 230.44 331.48 230.33 331.55 230.3 331.57 230.28 331.7 230.23 331.81 230.15 331.88 230.12 332.18 229.96 332.24 229.93 332.31 229.86 332.4 229.71 332.48 229.55 332.51 229.44 332.51 229.34 332.51 229.25 332.49 229.17 332.44 229.02 332.42 228.94 332.4 228.88 332.38 228.78 332.35 228.72 332.33 228.67 332.31 228.62 332.31 228.57 332.31 228.52 332.34 228.46 332.35 228.41 332.33 228.25 332.35 228.07 332.49 227.92 332.97 227.83 333.03 227.76 333.08 227.74 333.15 227.72 333.2 227.72 333.22 227.71 333.43 227.67 333.73 227.71 333.95 227.8 334.41 228.06 334.64 228.28 334.8 228.66 334.82 228.68 334.84 228.71 334.97 228.86 334.97 229.14 335.57 229.8 335.89 230.09 336.03 230.29 336.11 230.43 336.31 231.33 336.46 231.62 336.75 232.01 337.1 232.37 337.11 232.51 337.07 232.7 336.89 233 336.85 233.34 336.9 233.4 336.95 233.5 337.01 233.62 337.06 233.68 337.12 233.78 337.17 233.83 337.21 233.91 337.23 233.99 337.29 234.14 337.31 234.21 337.33 234.29 337.35 234.37 337.42 234.48 337.46 234.55 337.49 234.67 337.54 234.78 337.56 234.86 337.59 234.95 337.62 235.01 337.66 235.07 337.67 235.12 337.68 235.17 337.7 235.19 337.73 235.24 337.74 235.27 337.78 235.35 337.82 235.43 337.86 235.52 337.88 235.57 337.89 235.63 337.93 235.7 337.95 235.75 337.97 235.78 338.01 235.86 338.02 235.89 338.03 235.93 338.07 235.97 338.11 236.04 338.13 236.11 338.14 236.18 338.18 236.24 338.24 236.33 338.29 236.43 338.32 236.51 338.34 236.61 338.4 236.71 338.41 236.78 338.46 236.9 338.53 237.02 338.82 237.76 338.94 238.07 339.33 238.78 339.38 238.87 339.6 239.42 339.63 239.54 339.67 239.67 339.93 240.21 340.12 240.49 340.28 240.78 340.39 240.99 340.74 241.55 340.84 241.72 341.1 242.22 341.36 242.68 341.4 242.83 341.83 243.57 341.87 243.64 342.1 244.13 342.23 244.34 342.6 244.98 342.65 245.07 342.9 245.57 343.21 245.99 343.44 246.31 343.61 246.55 344.25 247.47 344.28 247.52 344.5 247.9 344.83 248.32 345.6 249.29 346.25 250.27 346.3 250.34 346.5 250.56 346.76 250.56 347.12 250.43 347.52 250.35 347.71 250.3 347.94 250.15 348.28 249.87 348.71 249.75 348.8 249.68 348.91 249.68 349.04 249.77 350.21 250.96 350.47 251.14 350.71 251.44 350.82 251.62 350.98 251.75 351.14 251.96 351.44 252.61 351.6 252.84 351.94 253.18 352.19 253.7 352.45 254.01 352.83 254.12 353.05 254.35 353.38 254.87 353.57 255.41 353.86 255.89 354.26 256.37 354.37 256.55 354.71 257.42 355.33 258.26 355.92 259.17 356.57 260.04 357.34 260.86 358.5 262.55 359.6 263.67 360.72 264.69 363.38 266.05 363.55 267.02 363.65 268.43 363.91 268.5 364.4 268.43 364.76 268.44 365.3 268.6 366.04 268.67 367.26 268.69 367.7 268.82 367.91 268.87 368.45 268.71 368.64 268.7 368.79 268.82 368.95 268.93 369.08 268.8 369.14 268.65 369.14 268.37 369.06 268.1 368.62 267.43 368.38 266.98 368.34 266.71 368.39 266.47 368.54 266.32 368.79 266.19 368.99 266.17 369.16 266.37 369.24 266.35 369.43 266.18 369.97 266.06 370.07 266.03 370.28 265.81 370.48 265.44 370.98 264.79 371.19 264.58 371.47 264.49 371.67 264.49 371.72 264.5 371.82 264.62 372.3 264.97 372.42 264.99 372.71 264.89 372.94 264.91 373.12 265.11 373.71 265.16 373.89 265.22 374.29 265.68 374.47 265.99 374.6 266.42 374.77 266.67 375.07 266.94 375.21 267.03 375.34 267.2 375.4 267.38 375.42 267.83 375.56 267.99 375.94 268.12 376.07 268.25 376.27 268.52 376.66 268.86 376.73 268.92 376.71 269.46 376.72 269.7 376.77 269.89 376.9 270.01 377.24 270.09 378 270.13 378.14 270.11 378.32 270.15 378.22 270.25 377.47 270.29 377.33 270.39 377.25 270.53 377.22 270.73 377.22 271.32 377.32 271.85 377.68 272.76 378.3 273.79 378.45 274.18 378.72 274.62 378.88 274.92 379.09 275.3 379.17 275.56 379.58 276.27 379.88 276.79 380.23 277.31 380.38 277.61 380.64 278 380.73 278.22 381.24 279.05 381.35 279.25 381.37 279.38 382 280.47 382.16 280.72 382.69 281.52 383.59 282.71 384 283.2 384.4 283.76 384.83 284.24 384.94 284.34 385.22 284.6 385.61 285.14 385.92 285.64 386.14 285.92 386.77 286.48 387 286.76 387.13 287.07 387.6 287.94 388.12 288.69 388.34 289.09 388.57 289.7 388.69 290.26 388.75 290.59 388.73 290.63 388.77 291.03 388.74 291.32 388.83 292.18 388.8 292.22 388.99 293.43 389.14 294.03 390.2 296.5 391.6 299.76 391.82 300.05 391.97 300.32 392.59 302.37 392.86 303.09 393.02 303.34 393.11 303.76 393.32 304.35 393.39 304.44 393.51 304.75 393.61 305.22 393.75 305.65 394.46 307.3 394.86 308.42 395.31 309.48 395.6 310.16 395.88 310.89 396.23 311.55 396.29 311.76 396.6 312.32 396.71 312.6 396.84 312.82 397.3 313.85 397.74 314.57 398.06 315.21 398.55 316.03 398.96 316.94 399.73 318.31 399.99 318.85 400.53 319.6 400.84 320.12 401.24 320.72 401.32 320.85 401.41 321.08 401.78 321.67 402.13 322.1 402.27 322.33 402.35 322.56 402.9 323.35 403.48 324.29 403.76 324.74 404.62 326.04 405.28 326.87 405.41 327.07 405.69 327.7 405.9 328.08 406.23 328.7 406.47 329.08 406.69 329.36 406.78 329.5 406.91 329.95 407.12 330.22 407.27 330.34 407.37 330.49 407.44 330.77 407.57 331.27 408.05 332.03 408.81 332.56 409.01 332.64 409.69 333.23 409.83 333.35 410.56 334.26 411.1 335.07 411.97 336.24 412.25 336.62 413.31 337.94 414.19 338.91 414.48 339.27 414.52 339.34 415.08 339.96 415.63 340.55 416.33 341.17 416.9 341.81 417.13 342.03 417.37 342.25 417.58 342.5 418.29 343.19 418.53 343.39 418.79 343.52 419.01 343.75 419.47 344.5 419.89 345.08 420.24 345.77 420.72 346.5 421.03 346.84 421.44 347.03 421.61 347.17 422.4 348.17 422.97 348.52 423.41 349.05 423.94 349.61 424.52 350.23 426.03 351.61 426.74 352.19 427.02 352.42 428.16 353.4 428.34 353.59 428.48 353.74 428.95 354.19 430.05 355.1 430.49 355.42 430.58 355.59 430.8 355.64 431.07 355.83 431.23 356 431.48 356.2 431.89 356.46 432.35 356.65 433.37 357.28 435.02 358.3 437.68 359.27 435.15 360.27 432.7 360.15 431.02 359.17 427.36 356.93 425.56 357.02 424.21 357.49 421.88 358.07 420.46 359.28 419.81 360.68 419.49 362.99 419.41 365.15 419.01 366.36 418.47 367.24 417.57 367.88 415.55 368.11 412.68 367.14 411.7 365.75 411.5 364.61 411.42 364.07 411.52 363.53 411.63 362.93 412.63 359.86 412.6 357.93 409.88 355.9 408.85 355.05 408.43 354.71 407.93 354.61 407.32 354.49 405.81 354.65 402.78 356.78 399.55 361.13 396.75 364.6 395.89 365.57 395.18 366.8 394.92 367.12 396.18 368.34 399.73 371.69 401.16 373.07 404.98 376.75 405.41 377.22 405.93 377.84 406.49 378.72 406.84 379.47 407.22 380.52 407.01 381.38 406.86 381.78 406.8 381.91 406.63 381.69 406.21 381.23 404.82 379.84 404.69 379.96 404.19 380.43 403.59 381.01 400.39 377.9 400.24 379.16 397.45 378.85 397.25 380.48 395.85 380.33 395.69 381.66 394.3 381.51 394.43 380.44 391.91 380.16 391.86 380.16 391.82 380.51 391.6 380.48 391.32 382.82 391.04 382.8 388.25 382.49 388.12 382.48 387.97 382.47 387.8 383.81 387.3 388.1 386.71 388.04 384.23 387.77 383.91 390.6 383.42 394.74 377.11 394.05 376.82 394.02 374.22 393.74 371.82 393.47 371.52 393.44 371.29 393.45 367.64 393.03 366.73 392.93 364.11 392.62 361.94 392.38 361.71 392.35 361.48 394.23 360.15 394.09 360.22 394.24 361.31 395.39 361.2 396.34 360.97 395.83 360.82 396 360.68 396.4 360.02 396.92 358.89 397.85 358.85 395.77 358.84 395.48 358.41 395.33 357.71 395.57 357.64 395.75 353.57 394.25 353.26 396.93 352.66 397.66 352.31 395.46 350.79 395.35 349.24 397.2 349.08 397.3 350.27 398.61 351.56 399.72 352 400.07 352.9 400.43 352.82 400.61 352.72 400.86 352.85 400.91 352.74 401.18 351.85 400.85 351.17 401 350.49 400.18 349.9 400.12 349.35 400.54 349.29 401.11 350.35 402.37 350.93 402.65 351.22 402.88 350.93 403.88 350.85 404 350.73 403.93 350.64 404.01 350.58 404.03 350.48 404.09 350.38 404.19 350.19 404.38 351.58 405.2 353.12 406.18 354.09 407.03 354.81 408.06 354.46 408 354.28 408 354.51 408.48 354.72 408.98 354.93 409.37 354.98 409.68 354.98 409.86 354.87 410.04 354.11 410.16 353.76 410.32 353.44 410.65 353.29 411.01 353.29 411.38 353.39 411.7 353.53 412.08 353.34 412.59 353.29 412.79 353.31 412.93 353.48 413.14 353.81 413.4 354 413.48 354.09 413.46 354.22 413.36 354.47 412.7 354.83 412.81 354.9 413.17 354.88 413.36 353.98 414.61 353.4 415.41 353.33 415.72 353.47 416.44 353.66 417.93 353.5 418.62 353.33 418.82 353.07 418.75 352.83 418.6 352.41 418.59 352.06 417.94 351.5 417.91 351.28 418.36 351.16 418.87 350.97 419.54 350.63 419.94 350.09 419.95 349.7 419.77 349.25 419.32 348.99 418.75 348.76 417.43 348.08 417.69 347.69 418.16 346.97 418.91 346.57 420.21 346.5 420.82 346.53 421.07 346.84 421.71 346.96 422 347.01 422.31 346.95 422.49 346.7 422.95 346.59 423.21 346.54 423.5 346.59 423.77 346.72 424 346.95 424.12 347.26 424.16 347.61 424.15 348.16 424.08 348.41 424.14 348.74 424.33 349.06 424.58 349.18 424.66 349.4 424.94 349.66 425.21 349.69 425.29 349.67 425.88 349.83 426.67 349.73 427.22 349.54 428.01 349.45 428.73 349.37 429.18 349.21 429.51 349.05 429.8 348.92 429.96 348.97 430.15 349.53 430.48 349.68 430.09 358.11 431.11 361.49 431.53 362.91 431.7 364.01 431.83 363.97 432.23 363.73 434.08 363.69 434.46 363.57 435.38 363.47 436.14 363.41 436.54 362.91 440.32 361.76 449.21 360.87 456.04 366.86 456.55 366.84 456.86 365.92 467.11 365.28 473.3 365.24 473.83 365.19 474.5 364.78 479.31 364.18 486.4 363.7 491.95 362.9 500.73 362.1 509.58 370.57 510.36 370.03 515.75 370.48 515.79 370.63 516.9 373.27 516.64 375.62 516.41 375.05 522.2 383.44 522.95 383.43 523.11 382.26 533.63 382.23 533.9 378.49 533.54 378.03 537.84 377.68 541.23 373.08 540.78 371.64 554.32 365.51 553.7 364.73 560.91 364.71 561.04 360.77 560.65 360.63 560.63 360.49 560.62 360.51 560.39 357.3 560.08 351.19 559.47 350.31 567.54 349.39 575.88 347.65 592.03 347.63 592.3 347.6 592.56 345.08 592.31 344.76 595.27 340.8 594.88 340.66 596.27 340.4 598.69 344.35 599.08 342.62 611.22 330.25 615.13 332.2 618.63 332.71 622.5 332.82 624.85 332.09 626.52 331.22 627.81 328.43 628.61 325.23 629.12 321.15 628.49 315.47 627.27 307.92 624.98 299.55 621.31 293.3 618.72 288.62 615.84 286.6 614 285.11 612.53 283.58 609.93 282.17 606.69 281.34 605.45 279.45 603.87 277.59 602.91 273.87 601.51 269.5 599.87 264.6 598.38 258.78 596.79 254.01 595.29 251.61 594.77 Z M 310.81 157.89 310.85 157.3 310.88 156.94 310.58 156.53 310.28 156.58 310.32 156.46 310.33 156.4 310.31 156.32 310.28 156.26 310.2 156.11 310.13 156.11 310.13 156.03 310.11 156.03 310.11 155.95 310.08 155.95 310.08 155.87 310.04 155.87 310.04 155.79 310.01 155.79 310 155.75 310.01 155.71 310.06 155.71 310.02 155.62 310.33 155.66 310.37 155.69 310.26 155.45 310.1 155.17 309.93 154.97 309.8 154.88 309.78 154.77 309.84 154.66 309.96 154.54 310.13 154.43 309.81 154.32 310.01 154.19 310.08 154.14 310.27 154.34 310.45 154.06 310.44 153.63 310.58 153.14 310.63 153.06 310.82 153.08 311.39 153.28 311.92 153.62 312.33 153.57 312.66 153.47 312.78 153.27 312.96 153.25 313.37 153.29 313.72 153.31 314.19 153.33 314.67 153.17 315.05 152.91 315.33 152.82 315.7 152.76 316.09 152.75 316.48 152.59 316.99 152.26 317.59 151.82 317.84 151.76 318.23 151.69 318.58 151.62 319.05 151.43 319.42 151.15 319.92 150.81 320.16 150.62 320.16 150.18 320.14 149.78 320.13 149.52 320.23 149.33 320.34 149.14 320.48 148.85 320.6 148.84 320.96 149.09 321.44 149.45 321.83 149.86 322.14 150.35 322.3 150.63 322.81 151.21 323.19 151.66 323.45 152.15 323.55 152.51 323.86 153.08 324.07 153.49 324.12 154.16 324.14 154.21 324.09 154.3 323.73 154.6 323.4 154.91 323.15 155.2 323.03 155.27 322.88 155.22 322.58 154.93 322.35 154.52 322.21 154.1 322.08 153.56 321.65 153.4 321.13 153.53 320.89 153.59 320.7 153.57 320.6 153.39 319.87 153.39 319.36 153.34 319.04 153.75 318.98 153.87 318.75 153.99 318.37 153.98 318.05 153.92 317.72 153.95 317.38 154.26 317.27 154.58 317.11 154.88 316.96 154.93 316.58 154.94 316.21 154.8 315.77 154.64 315.44 154.62 314.84 154.9 314.18 155.37 313.71 155.95 313.3 156.35 312.84 156.61 312.3 156.94 311.72 157.23 311.22 157.8 310.89 157.92 310.81 157.89 Z M 333.16 162.4 333.16 162.06 333.44 161.88 333.72 161.72 334.09 161.75 334.31 161.86 334.56 162.04 334.7 162.31 334.62 162.49 334.39 162.62 334.14 162.7 333.6 162.69 333.16 162.4 Z" fill-rule="evenodd" fill="#ffff7f" stroke="#000000"/>
<path d="M 437.68 359.27 441.17 360.23 441.4 360.19 441.64 360.19 441.96 360.27 442.46 360.64 442.67 360.77 442.99 360.87 443.63 360.96 443.93 361.03 444.02 361.1 444.26 361.16 445.49 361.83 446.23 362.31 446.3 362.31 446.97 362.77 447.29 363.05 448.53 364.46 449.62 365.53 450.48 366.32 451.36 367.05 452.03 367.68 452.41 368.1 452.74 368.61 452.82 369.01 452.7 369.5 452.64 369.58 452.53 370 452.4 371.2 452.43 371.54 452.24 373.77 452.23 374.03 451.91 374.52 451.76 374.65 451.62 374.67 451.5 374.59 451.36 374.43 451.34 374.24 451.38 373.77 451.64 373.17 451.68 372.87 451.65 372.67 451.56 372.46 451.54 372.1 451.48 371.84 451.1 371.99 451.04 372.15 450.96 372.23 450.82 372.21 450.72 372.13 450.5 371.82 450.25 371.57 449.72 371.18 449.51 371.07 449.07 370.95 448.2 370.94 447.68 370.99 446.99 371 446.67 371.08 445.93 371.69 445.78 371.79 445.53 371.91 445.28 371.94 445.44 371.36 445.41 371.26 445.34 371.19 445.26 371.19 444.87 371.46 444.52 371.62 444.35 371.6 444.27 371.51 444.25 371.18 444.2 371.08 443.53 370.65 443.34 370.54 442.95 370.45 441.71 370.27 441.5 370.19 441.27 370.02 440.54 369.36 440.02 368.8 439.82 368.53 439.54 367.96 439.32 367.7 438.99 367.43 438.8 367.43 438.76 367.47 438.78 367.68 439.56 368.82 439.92 369.31 440.68 370.06 441.38 370.64 441.7 370.89 442.32 371.25 442.58 371.47 442.7 371.69 442.71 372.08 442.75 372.29 442.86 372.1 442.99 371.99 443.19 371.99 443.48 372.14 443.55 372.15 443.92 372.32 444.2 372.52 444.5 372.67 444.65 372.73 444.87 372.86 444.94 372.86 445.03 372.93 445.47 373.01 445.68 373.14 446.37 373.75 446.66 374.09 446.75 374.29 446.93 374.47 447.17 374.6 447.5 374.68 447.67 374.72 447.72 374.76 447.83 374.78 448.18 374.98 448.27 375 448.48 375.07 448.7 375.24 448.97 375.5 449.19 375.7 449.52 375.89 449.83 375.93 450.1 375.96 450.51 376.05 450.72 376.1 450.84 376.08 451.07 376.06 451.34 376.11 451.76 376.07 452 376.05 452.24 376.13 452.8 376.41 453.06 376.52 453.11 376.54 453.69 376.72 453.9 376.73 454.07 376.74 454.28 376.65 454.35 376.74 454.3 377.27 454.3 377.51 454.33 377.75 454.92 378.86 454.96 379.01 455.08 379.14 455.05 379.18 455.23 379.39 455.34 379.59 455.38 379.74 455.58 379.99 455.75 380.4 455.81 380.78 455.85 381.66 455.93 382.31 455.9 382.61 455.96 383.21 455.95 384.02 455.9 384.2 455.81 384.33 455.72 384.61 455.51 384.73 455.25 384.95 455.14 385.15 455.01 385.29 454.69 385.44 454.33 385.65 453.95 386 453.2 386.57 452.33 387.04 451.89 387.34 451.65 387.47 451.26 387.63 450.82 387.74 449.92 387.77 449.29 387.75 448.89 387.71 448.53 387.6 448.13 387.36 447.9 387.34 447.6 387.38 447.5 387.41 447.06 387.73 446.93 387.78 446.61 387.75 446.39 387.71 446.35 387.67 446.16 387.57 445.86 387.41 445.66 387.25 445.6 387.13 445.35 387.17 445.26 387.24 445.17 387.21 444.89 386.91 444.58 387 444.31 386.95 444.04 386.72 443.45 386.82 443.91 387.27 444.14 387.47 444.36 387.65 444.83 387.95 445.06 388.05 445.11 388.09 445.22 388.12 445.71 388.34 445.91 388.47 446.81 389 446.95 389.18 447.08 389.58 447.06 389.8 446.63 390.26 446.41 390.46 446.36 390.46 446.23 390.54 446.01 390.8 445.88 390.78 445.62 390.8 445.41 390.84 445.21 390.99 445.19 391.05 445.03 391.18 444.76 391.42 444.72 391.48 444.3 391.74 444.03 391.93 443.76 392.08 443.5 392.16 443.47 392.14 443.21 392.25 442.92 392.36 442.83 392.42 442.52 392.52 442.47 392.5 442.23 392.59 441.84 392.66 441.49 392.66 441.41 392.63 441.12 392.61 440.99 392.61 440.39 392.99 440.14 393.14 439.63 393.52 439.41 393.69 438.97 393.95 438.83 394.14 438.9 394.23 439.05 394.25 439.07 394.42 438.99 394.57 438.79 394.77 438.67 394.85 438.3 394.98 438.25 394.96 438.06 395 437.4 394.94 437.26 395.02 437.39 395.1 437.73 395.18 437.97 395.26 438.01 395.34 437.99 395.58 437.87 395.9 437.78 396.24 437.69 396.5 437.6 396.91 437.58 397.18 437.6 397.38 437.69 397.51 437.73 397.68 437.78 398.02 437.76 398.31 437.71 398.58 437.74 398.78 437.77 399.03 437.72 399.28 437.62 399.5 437.64 399.56 437.24 400.1 437.02 400.29 436.61 400.87 436.65 401.07 436.67 401.26 436.67 401.37 436.55 401.5 436.4 401.56 436.11 401.56 435.76 401.62 435.56 401.79 435.44 402.01 435.42 402.74 435.33 402.95 435.18 403.33 435.15 403.51 435.06 403.72 434.88 404.3 434.86 404.54 434.7 405.91 434.65 406.17 434.54 406.72 434.56 406.96 434.63 407.35 434.56 407.56 434.47 407.77 434.34 408.57 434.31 409.04 434.29 409.27 434.24 409.83 434.24 410.09 434.33 410.56 434.38 410.82 434.46 411.36 434.53 411.59 434.61 412.11 434.61 412.3 434.66 412.71 434.88 413.09 435.08 413.72 435.14 413.97 435.34 414.51 435.52 414.83 435.91 415.48 435.97 415.62 436.04 416.12 436.11 416.38 436.15 416.59 436.31 416.87 436.37 417.17 436.4 417.28 436.57 417.56 436.62 417.73 436.59 418.01 436.48 418.37 436.35 418.52 436.08 418.7 435.61 419.14 435.44 419.38 435.4 419.56 435.37 419.64 435.23 419.74 435.32 419.85 435.5 419.89 435.54 419.94 435.61 420.15 435.9 420.58 436.14 421.16 436.49 421.64 436.58 421.81 436.63 422 436.94 422.41 437.05 422.66 437.31 422.9 437.35 423.07 437.5 423.26 437.93 423.65 437.93 424.04 437.97 424.13 438.25 424.36 438.99 424.86 439.88 425.92 441.41 427.32 441.83 427.71 442.32 428.06 442.71 428.39 443.05 428.73 443.8 429.35 444.4 429.76 444.68 429.91 444.94 430 445.25 430.2 445.41 430.24 445.71 430.42 446.23 430.95 446.48 431.19 447.15 431.69 447.39 432.01 447.57 432.16 448.29 432.98 448.55 433.37 448.73 433.58 448.78 433.66 448.86 433.79 449.19 434.07 449.41 434.32 449.69 434.55 450.4 435.3 450.64 435.58 450.91 435.96 451.62 436.78 451.93 437.11 452.14 437.29 452.36 437.39 452.6 437.58 453.26 438.17 453.94 438.82 455.23 440.32 455.61 440.39 458.36 441.06 459.45 440.7 459.81 440.41 460.24 440.91 460.55 440.75 460.88 440.35 461.17 439.69 461.32 439.51 461.5 439.08 462.14 438.57 463.65 438.58 465.48 438.57 463.78 445.52 463.59 446.31 461.94 446.05 461.91 446.35 461.93 446.65 461.91 446.87 462.17 446.91 461.83 448.84 461.68 449.7 460.56 455.32 460.48 455.97 459.85 457.79 459.61 458 459.57 458.31 459.61 458.56 459.8 458.76 459.83 458.84 459.78 458.9 459.56 458.9 459.57 459.01 459.69 459.16 459.75 459.36 459.78 459.72 459.78 460.26 459.69 461.17 459.55 461.45 459.14 461.52 459.01 461.69 459.05 462.04 458.9 462.39 458.87 462.61 458.9 463.01 458.7 463.7 458.64 464.03 458.69 464.37 458.66 464.54 458.5 464.69 458.02 464.93 457.88 465.05 457.41 465.54 457.41 465.63 457.5 465.74 457.59 465.76 457.65 465.82 457.67 466.05 457.53 466.52 457.52 466.77 457.58 466.83 457.74 466.87 457.83 466.96 457.98 467.26 458.27 468.06 458.51 468.42 458.58 468.66 458.67 468.8 459.22 469.52 459.22 469.82 459.15 469.9 459.03 470.3 458.94 470.71 458.94 471.16 458.99 471.79 458.96 472.16 458.88 472.39 458.77 472.56 458.77 472.67 459.03 472.9 459.23 473.38 459.21 473.46 463.15 474.34 462.79 475.06 462.06 475.29 460.45 475.3 458.75 475.14 456.95 474.69 456.13 474.72 455.45 475.2 454.65 476.06 453.74 477.11 452.7 478.72 451.15 481.38 450.66 482.4 450.31 483.66 450.53 486.25 451.48 491.46 451.36 493.09 450.92 494.15 450.14 495.56 449.62 496.29 448.11 498.29 446.71 499.41 446.37 499.66 444.01 500.29 443.11 501.15 442.68 502.14 442.65 503.33 442.44 504.01 443.33 505.43 442.56 506.14 440.19 507.64 437.88 507.07 436.77 506.7 431.89 504.45 431.08 503.03 429.46 502.92 427.63 502.33 425.05 500.61 423.45 498.73 421.62 498.55 421.22 502.32 421.18 502.58 423.15 502.78 422.91 504.94 422.76 506.27 424.01 508.71 425.56 511.72 425.39 513.37 425.14 515.75 423.75 515.62 423.74 515.75 420.81 515.46 417.71 515.14 415.61 514.93 413.65 514.74 413.29 514.71 412.18 514.47 411.49 514.4 411.46 514.47 410.69 514.27 410.38 514.22 410.7 513.35 410.87 512.7 410.98 511.89 411 510.92 411.01 506.97 410.98 505.95 411.1 503.22 411.17 501.66 411.17 500.7 411.16 500.12 411.18 498.38 411.15 497.31 411.16 496.14 411.1 495.41 410.94 494.74 410.62 493.85 410.4 493.42 410.27 493.18 409.71 492.42 409.92 492.26 409.8 491.81 409.72 491.48 409.65 491.22 409.61 490.97 409.59 490.72 409.59 490.47 409.61 490.22 409.66 489.98 409.73 489.74 408.8 490.71 407.96 490.85 405.68 488.99 405.56 488.59 404.63 487.77 403.73 487.03 402.63 486.12 401.89 485.51 400.45 484.32 399.55 483.14 399.01 482.35 398.74 482.43 398.39 482.6 398.1 482.81 397.95 482.88 397.85 482.92 397.71 483.07 396.95 483.58 396.35 483.93 395.9 484.34 395.64 484.66 395.57 484.83 395.62 485.01 395.98 485.54 396.25 485.86 396.34 485.95 396.57 486.07 396.64 486.07 396.94 486.26 397.15 486.43 397.35 486.71 397.39 487.01 397.38 487.16 397.36 487.34 397.37 488.43 397.3 489.05 397.29 489.17 397.18 490.64 397.15 491.12 397.15 491.91 397.21 492.49 397.34 493.15 397.34 493.77 397.15 494.2 397.06 494.5 396.95 494.83 396.82 495.04 396.69 495.15 396.5 495.26 396.1 495.35 395.59 495.24 395.58 495.33 394.94 495.21 394.49 495.13 393.94 495.11 393.4 495.16 392.96 495.2 392.45 495.17 391.83 495.02 391.18 495.2 391.03 495.35 390.96 495.35 390.79 495.33 388.06 495.04 387.88 494.06 386.96 494.13 386.81 494.17 386.42 494.29 386.31 494.18 386.28 493.63 386.22 493.17 385.98 492.89 385.58 492.92 385.05 492.96 384.09 492.65 383.81 492.36 383.65 492.18 383.41 491.98 383.07 491.9 382.99 491.93 382.77 491.73 382.62 491.61 380.86 491.46 380.55 491.43 378.93 491.29 378.18 491.23 377.2 491.15 374.48 490.92 373.04 490.8 372.94 491.87 372.86 492.71 370.22 492.48 363.7 491.95 364.18 486.4 364.78 479.31 365.19 474.5 365.24 473.83 365.28 473.3 365.92 467.11 366.84 456.86 366.86 456.55 360.87 456.04 361.76 449.21 362.91 440.32 363.41 436.54 363.47 436.14 363.57 435.38 363.69 434.46 363.73 434.08 363.97 432.23 364.01 431.83 362.91 431.7 361.49 431.53 358.11 431.11 349.68 430.09 349.53 430.48 348.97 430.15 348.92 429.96 349.05 429.8 349.21 429.51 349.37 429.18 349.45 428.73 349.54 428.01 349.73 427.22 349.83 426.67 349.67 425.88 349.69 425.29 349.66 425.21 349.4 424.94 349.18 424.66 349.06 424.58 348.74 424.33 348.41 424.14 348.16 424.08 347.61 424.15 347.26 424.16 346.95 424.12 346.72 424 346.59 423.77 346.54 423.5 346.59 423.21 346.7 422.95 346.95 422.49 347.01 422.31 346.96 422 346.84 421.71 346.53 421.07 346.5 420.82 346.57 420.21 346.97 418.91 347.69 418.16 348.08 417.69 348.76 417.43 348.99 418.75 349.25 419.32 349.7 419.77 350.09 419.95 350.63 419.94 350.97 419.54 351.16 418.87 351.28 418.36 351.5 417.91 352.06 417.94 352.41 418.59 352.83 418.6 353.07 418.75 353.33 418.82 353.5 418.62 353.66 417.93 353.47 416.44 353.33 415.72 353.4 415.41 353.98 414.61 354.88 413.36 354.9 413.17 354.83 412.81 354.47 412.7 354.22 413.36 354.09 413.46 354 413.48 353.81 413.4 353.48 413.14 353.31 412.93 353.29 412.79 353.34 412.59 353.53 412.08 353.39 411.7 353.29 411.38 353.29 411.01 353.44 410.65 353.76 410.32 354.11 410.16 354.87 410.04 354.98 409.86 354.98 409.68 354.93 409.37 354.72 408.98 354.51 408.48 354.28 408 354.46 408 354.81 408.06 354.09 407.03 353.12 406.18 351.58 405.2 350.19 404.38 350.38 404.19 350.48 404.09 350.58 404.03 350.64 404.01 350.73 403.93 350.85 404 350.93 403.88 351.22 402.88 350.93 402.65 350.35 402.37 349.29 401.11 349.35 400.54 349.9 400.12 350.49 400.18 351.17 401 351.85 400.85 352.74 401.18 352.85 400.91 352.72 400.86 352.82 400.61 352.9 400.43 352 400.07 351.56 399.72 350.27 398.61 349.08 397.3 349.24 397.2 350.79 395.35 352.31 395.46 352.66 397.66 353.26 396.93 353.57 394.25 357.64 395.75 357.71 395.57 358.41 395.33 358.84 395.48 358.85 395.77 358.89 397.85 360.02 396.92 360.68 396.4 360.82 396 360.97 395.83 361.2 396.34 361.31 395.39 360.22 394.24 360.15 394.09 361.48 394.23 361.71 392.35 361.94 392.38 364.11 392.62 366.73 392.93 367.64 393.03 371.29 393.45 371.52 393.44 371.82 393.47 374.22 393.74 376.82 394.02 377.11 394.05 383.42 394.74 383.91 390.6 384.23 387.77 386.71 388.04 387.3 388.1 387.8 383.81 387.97 382.47 388.12 382.48 388.25 382.49 391.04 382.8 391.32 382.82 391.6 380.48 391.82 380.51 391.86 380.16 391.91 380.16 394.43 380.44 394.3 381.51 395.69 381.66 395.85 380.33 397.25 380.48 397.45 378.85 400.24 379.16 400.39 377.9 403.59 381.01 404.19 380.43 404.69 379.96 404.82 379.84 406.21 381.23 406.63 381.69 406.8 381.91 406.86 381.78 407.01 381.38 407.22 380.52 406.84 379.47 406.49 378.72 405.93 377.84 405.41 377.22 404.98 376.75 401.16 373.07 399.73 371.69 396.18 368.34 394.92 367.12 395.18 366.8 395.89 365.57 396.75 364.6 399.55 361.13 402.78 356.78 405.81 354.65 407.32 354.49 407.93 354.61 408.43 354.71 408.85 355.05 409.88 355.9 412.6 357.93 412.63 359.86 411.63 362.93 411.52 363.53 411.42 364.07 411.5 364.61 411.7 365.75 412.68 367.14 415.55 368.11 417.57 367.88 418.47 367.24 419.01 366.36 419.41 365.15 419.49 362.99 419.81 360.68 420.46 359.28 421.88 358.07 424.21 357.49 425.56 357.02 427.36 356.93 431.02 359.17 432.7 360.15 435.15 360.27 437.68 359.27 Z M 747.69 205.36 747.09 205.21 746.38 204.96 745.39 204.32 744.84 203.9 745.25 203.29 746.06 202.71 746.67 202.69 748.06 202.7 748.88 202.92 748.98 202.59 749.26 202.6 750 202.73 750.91 202.95 751.36 203.07 751.84 203.32 753.29 203.72 753.7 204.04 754.03 204.48 754.01 205.12 753.31 205.75 752.64 205.99 751.68 206.13 750.81 206.19 749.44 206.23 749.04 205.93 747.91 205.7 747.65 205.64 747.69 205.36 Z" fill-rule="evenodd" fill="#ffff7f" stroke="#000000"/>
<path d="M 225.82 695.54 226.8 694.58 227.91 693.09 227.86 691.16 227.61 689.6 230.02 688.55 231.42 687.52 233.44 686.66 234.49 685.3 235.35 683.37 236.65 682 238.08 681.39 239.46 679.27 241.62 677.54 241.82 675.92 241.9 674.17 240.48 672.72 241.18 671.54 240.59 670.09 238.39 668.57 236.25 667.23 235 666.3 233.51 665.72 231.4 667.55 230.09 667.19 228.54 665.63 227.24 663.89 226.23 662.96 224.35 663.76 222.37 664.84 220.33 665.34 218.24 665.21 216.69 664.05 215.81 662.72 217.37 661.81 217.8 660.26 218.23 658.19 216.93 656.28 218.2 654.73 219.11 653.13 221.75 650.9 221.8 649.56 221.23 648.67 220.22 648.22 219.36 647.71 218.57 645.66 217.95 643.75 217.04 642.32 216.41 640.99 215.98 639.83 215.06 639.29 214.25 638.76 214.51 636.57 214.83 635.1 215.39 634.19 216.51 633.68 217.55 632.94 219.07 630.46 220.23 628.89 221.09 628.22 222.8 627.96 224.52 628.26 225.97 627.67 227.68 626.5 227.61 625.12 228.02 624.66 228.2 624.45 230.86 622.52 232.74 620.11 235.26 619.38 236.69 618.18 238.05 617.39 239.14 615.85 239.6 614.22 240.23 612.08 241.09 611.37 242.53 611.31 243.8 610.4 245.39 609.59 245.93 608.58 246.93 606.37 247.95 604.14 248.25 602.31 249 600.99 249.53 599.73 249.41 598.64 249.05 597.21 249.49 596.11 250.24 595.75 251.06 595.3 251.61 594.77 254.01 595.29 258.78 596.79 264.6 598.38 269.5 599.87 273.87 601.51 277.59 602.91 279.45 603.87 281.34 605.45 282.17 606.69 283.58 609.93 285.11 612.53 286.6 614 288.62 615.84 293.3 618.72 299.55 621.31 307.92 624.98 315.47 627.27 321.15 628.49 325.23 629.12 328.43 628.61 331.22 627.81 332.09 626.52 332.82 624.85 332.71 622.5 332.2 618.63 330.25 615.13 342.62 611.22 344.35 599.08 340.4 598.69 340.66 596.27 340.8 594.88 344.76 595.27 345.08 592.31 347.6 592.56 347.63 592.3 347.65 592.03 349.39 575.88 350.31 567.54 351.19 559.47 357.3 560.08 360.51 560.39 360.49 560.62 360.63 560.63 360.77 560.65 364.71 561.04 364.73 560.91 365.51 553.7 371.64 554.32 373.08 540.78 377.68 541.23 378.03 537.84 378.49 533.54 382.23 533.9 382.26 533.63 383.43 523.11 383.44 522.95 375.05 522.2 375.62 516.41 373.27 516.64 370.63 516.9 370.48 515.79 370.03 515.75 370.57 510.36 362.1 509.58 362.9 500.73 363.7 491.95 370.22 492.48 372.86 492.71 372.94 491.87 373.04 490.8 374.48 490.92 377.2 491.15 378.18 491.23 378.93 491.29 380.55 491.43 380.86 491.46 382.62 491.61 382.77 491.73 382.99 491.93 383.07 491.9 383.41 491.98 383.65 492.18 383.81 492.36 384.09 492.65 385.05 492.96 385.58 492.92 385.98 492.89 386.22 493.17 386.28 493.63 386.31 494.18 386.42 494.29 386.81 494.17 386.96 494.13 387.88 494.06 388.06 495.04 390.79 495.33 390.96 495.35 391.03 495.35 391.18 495.2 391.83 495.02 392.45 495.17 392.96 495.2 393.4 495.16 393.94 495.11 394.49 495.13 394.94 495.21 395.58 495.33 395.59 495.24 396.1 495.35 396.5 495.26 396.69 495.15 396.82 495.04 396.95 494.83 397.06 494.5 397.15 494.2 397.34 493.77 397.34 493.15 397.21 492.49 397.15 491.91 397.15 491.12 397.18 490.64 397.29 489.17 397.3 489.05 397.37 488.43 397.36 487.34 397.38 487.16 397.39 487.01 397.35 486.71 397.15 486.43 396.94 486.26 396.64 486.07 396.57 486.07 396.34 485.95 396.25 485.86 395.98 485.54 395.62 485.01 395.57 484.83 395.64 484.66 395.9 484.34 396.35 483.93 396.95 483.58 397.71 483.07 397.85 482.92 397.95 482.88 398.1 482.81 398.39 482.6 398.74 482.43 399.01 482.35 399.55 483.14 400.45 484.32 401.89 485.51 402.63 486.12 403.73 487.03 404.63 487.77 405.56 488.59 405.68 488.99 407.96 490.85 408.8 490.71 409.73 489.74 409.66 489.98 409.61 490.22 409.59 490.47 409.59 490.72 409.61 490.97 409.65 491.22 409.72 491.48 409.8 491.81 409.92 492.26 409.71 492.42 410.27 493.18 410.4 493.42 410.62 493.85 410.94 494.74 411.1 495.41 411.16 496.14 411.15 497.31 411.18 498.38 411.16 500.12 411.17 500.7 411.17 501.66 411.1 503.22 410.98 505.95 411.01 506.97 411 510.92 410.98 511.89 410.87 512.7 410.7 513.35 410.38 514.22 410.69 514.27 411.46 514.47 411.49 514.4 412.18 514.47 413.29 514.71 413.65 514.74 415.61 514.93 417.71 515.14 420.81 515.46 423.74 515.75 423.75 515.62 425.14 515.75 425.39 513.37 425.56 511.72 424.01 508.71 422.76 506.27 422.91 504.94 423.15 502.78 421.18 502.58 421.22 502.32 421.62 498.55 423.45 498.73 425.05 500.61 427.63 502.33 429.46 502.92 431.08 503.03 431.89 504.45 436.77 506.7 437.88 507.07 440.19 507.64 442.56 506.14 443.33 505.43 442.44 504.01 442.65 503.33 442.68 502.14 443.11 501.15 444.01 500.29 446.37 499.66 446.71 499.41 448.11 498.29 449.62 496.29 450.14 495.56 450.92 494.15 451.36 493.09 451.48 491.46 450.53 486.25 450.31 483.66 450.66 482.4 451.15 481.38 452.7 478.72 453.74 477.11 454.65 476.06 455.45 475.2 456.13 474.72 456.95 474.69 458.75 475.14 460.45 475.3 462.06 475.29 462.79 475.06 463.15 474.34 467.82 474.46 467.73 474.22 467.64 473.96 467.42 473.49 467.32 473.21 467.09 472.63 466.98 472.37 466.79 471.88 466.65 471.66 466.47 471.08 466.41 470.81 466.24 470.33 466.12 470.05 465.88 469.58 465.7 469.26 465.66 469.11 465.41 468.23 465.39 468.01 465.33 467.73 465.22 467.09 465.22 466.85 465.24 466.34 465.29 466.08 465.35 465.55 465.53 464.75 465.6 464.49 465.69 464 465.74 463.68 465.83 463.12 465.89 462.91 466.01 462.18 466.05 461.94 466.23 461.24 466.3 461 466.48 460.34 466.55 460.12 466.73 459.63 466.82 459.37 466.86 458.82 466.86 458.56 467.02 457.98 467.11 457.79 467.29 457.25 467.38 456.93 467.58 456.25 467.65 456.01 467.83 455.45 467.89 455.26 467.98 454.7 468.07 454.49 468.12 454.42 468.18 453.91 468.23 453.67 468.29 453.45 468.3 453.12 468.32 452.9 468.5 452.3 468.61 452 468.77 451.47 468.88 451.25 468.94 451.09 468.99 450.61 469.02 450.4 468.99 450.25 469.15 449.86 469.31 449.58 469.4 449.49 469.65 449.47 469.68 449.35 469.44 449.15 469.44 449.07 469.46 448.81 469.49 448.7 469.91 448.04 470.19 447.62 470.81 446.52 471.9 445.84 472.49 445.62 472.76 445.13 472.96 444.79 473.12 444.53 473.34 443.85 473.65 443.27 473.87 442.99 474.3 442.56 474.54 442.3 474.99 441.92 475.26 441.64 475.92 440.98 476.52 441.37 476.76 441.56 477.26 441.98 477.5 442.28 477.86 442.77 477.83 443.11 477.74 443.26 477.79 443.48 477.83 443.54 478.01 443.69 478.14 443.71 478.34 443.86 479.33 443.67 479.33 443.61 479.35 443.39 479.29 443.07 479.33 442.77 479.36 442.55 479.37 441.94 479.34 441.7 479.19 441.06 479.08 440.89 479.05 440.77 479.52 440.45 479.39 440.39 479.07 440.54 478.96 440.5 478.88 440.16 478.7 439.68 478.6 439.43 478.48 439.3 478.21 439.16 477.98 439.08 477.73 439.06 477.02 438.97 476.78 438.95 476.45 438.86 476.15 438.49 476.11 437.98 476.13 437.74 476.19 437.43 476.29 437.14 476.38 436.95 476.69 436.46 476.85 436.22 477.07 435.89 477.18 435.64 477.29 435.45 477.4 434.95 477.38 434.81 477.34 434.55 477.29 434.27 477.27 433.99 477.3 433.78 477.45 433.14 477.54 432.9 477.77 432.39 477.88 432.17 478.15 431.68 478.28 431.53 478.28 431.47 478.55 430.99 478.66 430.8 478.88 430.27 479.02 430.05 479.33 429.58 479.48 429.37 479.86 428.96 480.09 428.77 480.55 428.45 480.76 428.3 481.35 427.96 481.6 427.83 482.11 427.6 482.36 427.51 482.94 427.34 483.16 427.24 483.18 427.26 483.39 427.19 483.8 427.11 484.02 427.13 484.07 427.18 484.18 427.2 484.44 427.35 484.66 427.37 484.93 427.26 485.39 427.31 485.57 427.3 485.75 427.2 486.19 426.9 486.44 426.71 486.58 426.69 486.79 426.77 486.95 426.97 487.06 427.18 487.1 427.72 487.16 427.93 487.32 427.94 487.43 427.82 487.48 427.64 487.45 427.33 487.39 426.98 487.43 426.71 487.57 426.54 487.88 426.54 488.06 426.73 488.12 426.99 488.14 427.25 488.12 427.33 487.94 427.54 487.9 427.7 487.97 427.92 488.06 428.2 488.09 428.4 488.1 428.65 488.14 429.09 488.26 429.16 488.45 429.16 488.65 429.05 489.25 428.75 490.05 428.37 490.26 428.22 490.28 428.25 490.8 428.07 491.06 427.95 491.4 427.81 491.79 427.71 492 427.6 492.03 427.61 492.56 427.5 492.81 427.46 493.42 427.48 493.67 427.5 494.21 427.72 494.45 427.81 494.58 427.91 494.88 428 495.04 428.04 495.34 427.94 495.7 427.79 495.93 427.74 496.17 427.68 496.33 427.63 496.66 427.42 496.73 427.42 496.95 427.34 497.6 427.12 497.8 427 498.12 426.85 498.28 426.72 498.54 426.6 498.75 426.59 499.13 426.38 499.39 426.25 499.91 425.95 500.15 425.8 500.47 425.61 500.71 425.55 500.96 425.51 501.65 425.51 501.89 425.55 502.32 425.79 502.51 425.94 502.72 426.11 503.03 426.33 503.33 426.48 503.53 426.61 507.29 423.71 507.29 423.49 507.34 423.3 507.35 422.75 507.57 422.51 507.73 422.24 507.76 421.78 507.83 421.4 508.01 420.99 508.02 420.82 507.96 420.04 507.89 419.6 507.9 418.63 507.98 418.3 508.14 418.13 508.33 418.03 508.64 417.97 509.24 417.91 511.12 417.52 512.08 417.19 512.97 417.03 514 416.68 515.6 416.39 516.12 416.13 517.51 415.34 517.97 415.14 518.5 415.02 518.78 415.01 519.31 415.33 519.73 415.5 519.76 415.14 519.77 414.92 519.77 414.81 519.62 414.64 519.6 414.36 519.73 414.15 519.98 413.96 520.23 413.9 520.42 413.91 520.59 414.08 520.69 414.28 520.78 414.37 520.98 414.35 521.46 414.13 521.59 414 521.71 413.6 521.77 413.34 521.84 413.15 521.97 412.91 522.17 412.76 522.42 412.7 522.65 412.57 523 412.12 523.32 411.84 523.83 411.59 524.04 411.41 524.07 411.34 524.14 410.91 524.32 410.37 524.69 409.58 524.85 409.37 525.58 408.51 526.07 407.81 526.49 407 526.75 406.35 527.02 405.84 527.1 405.59 527.09 405.28 527.31 404.31 527.5 403.73 527.72 403.36 527.85 403.05 527.89 402.64 527.96 402.41 527.97 402.2 527.93 402.12 527.62 401.86 527.64 401.71 527.73 401.58 527.83 401.25 527.86 401 527.84 400.81 527.71 400.61 527.43 400.24 527.29 400.04 527.27 399.84 527.32 399.45 527.4 399.18 527.47 399.09 527.49 398.92 527.47 398.78 527.5 398.53 527.67 398.11 528.03 397.56 528.23 397.34 528.48 397.12 528.83 396.93 528.95 396.93 529.06 396.87 529.19 396.89 529.74 396.93 529.96 396.91 530.48 396.81 530.99 396.51 531.29 396.42 531.67 396.35 532.22 396.35 532.6 396.4 532.76 396.36 533.03 396.23 533.42 395.96 533.57 395.71 533.68 395.13 533.88 394.38 534.05 393.94 534.17 393.82 535.1 393.42 535.17 393.35 535.38 393.28 535.89 393.15 536.8 393.06 537.14 392.99 537.43 392.82 537.74 392.52 537.87 392.45 538.57 392.29 538.72 392.18 539.32 391.62 539.94 391.2 540.1 391.15 540.28 391.06 540.51 390.89 540.71 390.64 540.77 390.45 540.76 390.14 540.72 390.05 540.56 389.86 540.58 389.69 540.85 389.26 540.98 388.88 541.34 388.33 541.68 387.89 541.71 387.76 541.65 387.57 541.73 387.49 541.93 387.51 542.08 387.49 542.12 387.34 542.19 387.27 542.31 387.21 542.55 387.24 542.83 387.38 543.2 387.38 543.63 387.28 544.11 387.04 544.47 386.79 545.13 386.5 545.44 386.32 545.63 386.15 545.73 385.88 545.8 384.74 545.92 384.36 546.73 383.49 547.48 382.92 547.63 382.68 547.9 381.95 548.13 381.6 548.35 381.35 548.74 381.07 549.3 380.78 550.37 380.6 551.52 380.22 552.01 380.2 552.83 380.05 553.12 379.97 553.52 379.67 553.82 379.52 554.53 379.53 554.76 379.5 555.49 379.26 556.05 379.2 556.82 379.05 557.18 378.92 557.45 378.88 558.36 378.84 558.98 378.69 559.84 378.39 560.44 378.14 560.7 377.97 560.82 377.85 561.02 377.52 561.08 377 561.19 376.63 561.46 376.08 561.61 375.37 561.53 374.83 561.53 374.19 561.6 373.77 561.76 373.18 561.85 372.11 562.03 371.36 562.22 370.93 562.42 370.63 562.62 370.43 562.87 370.35 563.03 370.37 563.58 370.74 563.78 370.95 564.04 371.17 564.33 371.23 564.55 371.4 564.62 371.56 564.78 371.75 565.21 372.12 565.74 372.66 567.01 373.75 567.36 374.17 567.51 374.27 567.93 374.54 568.35 374.9 568.52 375.11 568.56 375.26 568.7 376.16 569.03 377.07 569.07 377.3 569.09 377.55 569.04 378 568.84 379.08 568.81 379.47 568.86 379.79 568.95 379.95 569.08 380.08 569.16 380.11 569.64 380.19 569.79 380.27 569.85 380.42 569.85 380.48 569.67 380.74 569.64 380.9 569.62 381.1 569.68 381.7 569.69 382.11 569.48 382.73 569.45 383.34 569.57 383.6 569.72 383.76 570.12 383.96 570.3 384.11 570.52 384.37 570.58 384.51 570.61 384.67 570.92 385.06 571.49 385.61 572.05 386.04 572.27 386.29 572.56 386.7 572.86 387.02 573.1 387.23 573.79 387.72 574.25 388.11 574.74 388.41 575.21 388.75 575.87 389.31 576.1 389.44 576.61 389.97 577.02 390.51 577.56 391.38 577.94 391.68 578.05 391.87 578.24 392.27 578.43 392.74 578.67 393.07 579.11 393.4 579.26 393.58 579.4 393.83 579.57 393.95 579.77 393.95 579.84 394.02 579.87 394.12 579.94 394.5 580.13 395.11 580.35 395.45 580.66 396.05 580.88 396.37 581.89 397.68 582.03 397.93 582.21 398.1 582.78 398.53 583.13 398.96 583.32 399.12 583.69 399.58 584.04 399.91 584.15 400.08 584.17 400.24 584.15 400.36 584.04 400.53 584.04 400.61 584.14 401.12 584.17 401.58 584.11 402.13 583.99 402.48 583.81 402.79 583.54 403.1 583.28 403.31 583.21 403.31 582.94 403.46 582.44 403.46 582.47 403.51 582.69 403.64 583.42 403.77 583.71 403.99 583.88 404.19 584.21 404.74 584.24 404.91 584.57 405.44 584.83 405.76 585.01 406.04 585.54 406.6 585.78 406.9 586.09 407.55 586.08 407.69 585.86 408.01 585.53 408.37 585.11 408.95 584.93 409.3 584.8 409.38 584.55 409.43 584.42 409.56 584.37 409.66 584.22 409.65 584.06 409.57 583.88 409.54 583.71 409.58 582.98 410.07 582.55 410.48 582.31 410.81 582.15 411.07 582 411.53 581.94 411.94 581.93 412.61 581.97 412.79 582.2 413.11 582.47 413.41 582.57 413.59 582.54 413.73 582.07 414.58 581.85 414.91 581.78 415.06 581.8 415.29 581.95 416.06 582.09 416.52 582.45 417.33 582.81 418.23 582.93 418.71 583.06 418.82 583.28 419.03 583.92 419.12 584.27 419.46 584.56 419.64 584.95 419.84 585.35 419.97 585.75 420.18 586.28 420.39 586.88 420.72 587.58 421.01 589.08 421.52 589.43 421.82 589.53 421.83 589.93 421.76 590.14 421.8 590.5 422.04 590.96 422.25 591.37 422.33 592.28 422.66 593.1 422.93 593.92 423.13 595.03 423.3 596.4 423.59 597.29 423.67 597.93 423.86 598.38 423.91 598.78 424.04 599.13 424.11 599.84 424.13 600.09 424.17 600.56 424.16 601.02 424.24 601.62 424.29 602.19 424.37 603.37 424.37 603.66 424.41 605.17 424.48 606.25 424.47 607.1 424.48 608.32 424.44 611.23 424.28 613.84 423.97 614.77 423.72 615.41 423.68 616.51 423.39 616.63 423.33 616.71 423.22 616.7 422.93 616.78 422.75 617.14 422.47 617.18 422.29 617.17 421.97 617.25 421.62 617.21 420.99 617.25 420.89 617.37 420.76 618.05 420.56 618.45 420.56 618.88 420.68 619.55 421 619.67 421.04 619.87 420.94 620.01 420.85 620.07 420.37 620.25 419.76 620.45 419.33 620.72 418.93 620.87 418.82 621.35 418.81 621.56 418.65 621.64 418.44 621.65 418.02 621.85 417.75 621.96 417.28 622.39 416.82 622.45 416.57 622.53 416.43 622.82 416.18 622.94 415.98 622.92 415.82 622.71 415.43 622.71 415.06 622.83 414.46 622.9 414.26 623.04 414.05 623.33 413.76 623.66 413.27 623.88 413.15 624.18 413.03 624.46 413 624.74 412.85 625.66 412.27 626.36 412.2 626.92 412.19 627.36 412.36 627.76 412.65 627.83 412.79 627.83 412.85 627.97 413.01 628.22 413.25 628.37 413.31 628.62 413.33 628.87 413.22 629.32 413.25 629.71 413.39 629.94 413.41 630.86 412.88 631.11 412.68 631.66 412.11 631.99 411.92 632.16 411.76 632.96 410.82 633.78 410.02 633.8 409.96 633.84 409.49 633.83 408.71 633.91 408.56 633.96 407.63 634.06 407.25 634.3 406.88 634.45 406.74 634.91 406.42 635.28 406.23 635.58 406.17 636.11 406.17 637.01 406.32 637.32 406.44 638.06 406.96 638.66 407.41 639.23 407.74 639.64 407.87 640.44 407.93 640.92 407.81 641.68 407.49 641.98 407.46 642.19 407.57 642.47 407.76 642.79 408.14 643.08 408.35 643.76 408.75 644.08 409 644.38 409.33 644.68 409.52 645.01 409.55 645.36 409.53 645.56 409.45 646.06 409.42 646.15 409.35 646.36 409.3 646.89 409.06 647.2 409.01 648.36 409.16 648.59 409.1 648.83 408.86 648.84 408.68 648.51 408.49 648.43 408.39 648.43 408.33 648.52 408.26 648.81 408.29 648.9 408.22 649.04 406.27 649.32 405.84 649.43 405.75 649.75 405.63 649.81 405.48 650.03 405.29 650.28 405.14 650.41 404.97 650.72 404.19 650.83 403.74 651.04 403.32 651.24 402.76 651.4 402.64 651.45 402.52 651.47 402.18 651.55 401.89 651.62 401.82 651.79 401.32 651.84 400.91 651.79 400.53 651.82 399.54 651.78 399.03 651.83 398.25 651.79 397.81 651.68 397.31 651.69 397.12 651.84 396.66 651.65 396.45 651.65 396.27 651.81 396.15 651.9 395.78 652.01 395.6 652.56 395.1 652.8 394.95 653.06 394.73 653.26 394.42 653.35 394.05 653.54 393.84 653.89 393.62 654.32 393.24 654.52 392.9 654.59 392.7 654.83 392.35 655.28 391.85 655.55 391.66 655.66 391.52 655.86 391.14 656.01 390.76 656.28 390.38 656.55 390.09 656.83 389.86 657.07 389.73 657.7 389.18 657.72 388.97 657.78 388.86 658.02 388.7 658.15 388.53 658.18 388.22 658.28 388.01 658.42 387.85 658.64 387.85 658.79 387.94 658.98 387.88 659.02 387.74 659.02 387.69 658.95 387.4 659.06 387.25 659.22 387.19 659.44 387.29 659.52 387.29 659.59 387.23 659.6 387.2 659.74 386.47 659.79 385.87 659.84 385.72 660.11 385.39 660.44 385.13 660.49 384.94 660.44 384.62 660.52 383.94 660.69 383.39 661.11 382.41 661.71 381.75 662.15 380.67 662.36 379.59 662.48 379.47 662.61 379.42 662.65 379.35 662.74 379.07 662.96 378.74 663.43 378.2 663.47 378 663.38 377.74 663.38 377.5 663.45 377.3 663.61 377.15 663.88 377.09 664.12 377.13 664.36 376.93 664.93 376.22 665.4 375.93 665.99 375.42 666.26 375.13 666.85 374.68 667.3 373.92 667.4 373.48 667.39 372.85 667.32 372.76 667.26 372.53 667.01 372.11 666.58 371.6 666.26 371.27 666.02 370.86 665.82 370.36 665.33 369.46 665.14 368.97 664.96 368.67 664.96 368.61 664.89 368.54 664.85 368.31 664.41 367.6 664.39 367.06 663.97 366.62 663.79 366.36 663.6 365.92 663.23 364.84 663.02 363.42 663.04 363.38 662.97 363.06 662.89 362.92 662.49 362.43 662.49 362.33 662.26 361.91 662.47 360.91 662.58 360.81 663.01 360.79 663.73 360.7 664 360.72 664.37 360.79 664.85 360.97 665.08 360.97 665.75 360.83 666.33 360.52 666.6 360.28 666.92 360.18 667.51 360.09 667.78 360.12 668.43 360.29 669.19 360.56 669.47 360.71 669.68 360.88 669.74 360.9 669.79 360.88 670.12 361.05 670.56 361.2 671.75 362.26 671.87 362.34 671.94 362.34 672.43 362.62 672.58 362.64 672.83 362.78 673.07 362.78 674.35 363.14 674.44 363.2 674.61 363.19 674.83 363.26 675.23 363.3 675.63 363.26 676.06 363.06 676.31 362.91 676.66 362.8 676.82 362.69 676.95 362.65 677.06 362.67 677.11 362.65 677.13 362.61 678.43 362.26 678.53 362.22 678.55 362.18 678.72 362.13 679.54 362.03 680.09 362.07 680.52 362.21 680.88 362.44 681.1 362.76 681.27 363.19 681.34 363.28 681.74 364.11 682.12 364.78 682.12 364.87 682.29 365.14 682.4 365.38 682.4 365.51 682.62 365.83 682.62 365.91 682.71 366.04 682.71 366.13 682.82 366.26 682.89 366.26 683.45 366.82 683.6 366.94 683.62 367.01 683.76 367.15 683.93 367.24 685.28 368.36 685.37 368.38 685.41 368.42 685.41 368.51 686.32 369.39 686.32 369.43 686.67 369.93 686.98 370.12 687.09 370.27 687.56 370.53 687.6 370.59 687.8 370.68 687.83 370.74 688.05 370.91 688.05 371.04 688.21 371.16 688.27 371.28 688.39 371.38 688.58 371.64 688.58 371.71 688.89 372.03 688.97 372.59 689.13 372.8 689.11 373.1 689.15 373.38 689.28 373.53 689.34 373.53 689.41 373.57 689.74 373.55 690.08 373.59 690.19 373.72 690.18 373.93 690.15 374.02 690.1 374.04 690.06 374.22 689.99 374.3 689.99 374.39 690.04 374.47 690.28 374.67 690.26 374.99 690.28 375.03 690.2 375.25 690.17 375.71 690.39 376.27 690.79 376.82 690.88 376.91 691.24 376.85 691.38 376.87 691.58 377.02 691.74 377.07 692.14 377.45 692.47 378.04 692.47 378.12 692.51 378.18 692.5 378.28 692.96 378.61 694.13 378.89 694.24 379.04 694.49 379.64 694.69 379.81 694.91 379.92 695.04 379.94 695.13 380 695.41 380.09 695.89 380.33 696.1 380.46 696.43 380.86 697.84 382.17 697.96 382.26 698.05 382.26 698.16 382.34 698.63 382.35 698.85 382.5 698.94 382.5 699.02 382.57 699.27 382.99 699.25 383.05 699.31 383.2 699.44 383.32 699.67 383.48 700.26 383.54 700.51 383.61 701.23 384.15 701.71 384.45 701.8 384.6 701.81 385.1 701.95 385.48 702.12 385.62 702.28 385.71 702.51 385.78 702.86 385.74 703.03 385.86 703.01 385.95 703.17 386.1 703.14 386.25 703.23 386.36 703.25 386.59 703.08 386.93 703.08 387.24 703.32 387.89 703.59 388.15 703.85 388.61 703.95 388.87 703.98 389.25 703.96 389.51 704 389.7 704.24 389.88 704.36 390.02 704.55 390.85 704.8 391.35 704.8 391.43 705.68 393.11 705.86 393.6 706.13 394.13 706.37 394.45 706.84 395.32 707.4 396.14 707.69 396.84 707.92 397.22 708.07 397.76 708.6 398.47 709.41 399.25 709.73 399.72 710.03 400.06 710.23 400.23 710.65 400.47 711.18 400.56 711.71 400.71 712.36 400.82 713.47 400.91 714.32 400.85 714.69 400.66 715.1 400.2 715.23 399.93 715.23 399.53 714.83 399.02 714.79 398.95 714.79 398.73 714.97 398.45 715.17 398.3 715.21 398.18 715.26 398.13 715.43 398.15 715.56 398.1 716.12 398.09 716.32 397.96 716.59 397.94 718.27 398.18 718.77 398.54 719.02 398.75 719.23 399 719.23 399.16 719.27 399.22 719.27 399.94 719.36 400.09 719.65 400.17 720.14 400.43 720.52 400.68 720.73 401.03 720.8 401.82 720.53 402.17 720.51 402.47 720.2 403 720.14 403.18 720.13 403.45 720.26 403.69 720.46 403.84 721.2 403.8 721.59 403.84 721.85 403.98 722.06 404.19 722.23 404.72 722.3 404.8 722.34 405 722.39 405.04 722.36 405.34 722.42 405.61 722.59 405.96 723.46 406.7 724.21 407.26 724.71 408.15 724.75 408.44 724.72 408.74 724.62 409.03 724.26 409.43 723.82 409.43 723.31 408.77 722.8 408.75 722.71 408.66 722.58 408.4 722.34 408.23 722.04 408.11 721.83 408.06 721.56 408.13 720.91 408.57 720.62 408.82 720.49 409.02 720.56 409.28 720.54 409.32 720.54 409.45 720.56 409.49 720.51 409.64 720.61 410.14 720.75 410.62 721.07 411.44 721.18 411.6 721.42 411.82 721.53 412.06 721.52 412.14 721.44 412.17 721.35 412.08 721.24 412.08 721.13 412.19 721.23 412.82 721.28 413.01 721.55 413.24 721.52 413.68 721.34 414.34 721.32 414.89 721.55 415.2 721.7 415.55 721.92 415.87 722.39 416.37 723.12 417.49 723.45 418.08 723.58 418.47 723.56 418.57 723.64 418.76 723.63 419.29 723.4 420.14 723.13 420.64 722.87 421.03 722.52 421.41 722.25 421.64 721.91 421.83 721.52 421.97 721.06 422.1 720.5 422.18 720.38 422.21 720.01 422.47 719.4 422.77 719.33 422.83 719.31 422.92 718.8 423.2 718.28 423.36 717.59 423.46 716.91 423.44 716.33 423.48 716.02 423.63 715.7 423.69 715.22 423.72 714.95 423.83 714.69 424.05 714.52 424.11 714.45 424.11 714.25 423.98 714.19 423.98 714.13 423.94 714.09 423.94 713.85 423.77 713.8 423.77 713.73 423.72 713.25 423.7 713.02 423.86 712.92 423.98 712.92 424.04 712.83 424.17 712.62 424.27 712.49 424.3 712.1 424.26 711.88 424.08 711.78 423.86 711.76 423.26 711.72 423.16 711.61 423.06 711.24 422.97 710.66 423.05 710.22 423.05 709.98 422.96 709.86 423.01 709.63 422.99 709.5 423.01 709.17 423.2 708.99 422.9 708.81 422.75 707.98 422.26 707.91 422.26 707.78 422.34 706.9 422.37 706.87 422.41 706.6 423.11 706.15 423.37 706.01 423.37 705.69 423.37 705.28 423.09 705.05 422.96 704.92 422.94 704.82 422.96 704.53 423.34 704.07 423.96 703 425.1 702.37 425.56 701.71 426.1 701.1 426.71 700.01 427.66 699.38 428.25 698.58 429.08 697.86 429.86 697.46 430.37 695.77 432.23 695.24 432.74 694.85 433.24 694.68 433.52 694.57 433.89 694.39 434.18 693.83 434.69 692.19 436.77 691.31 437.77 691.1 438.09 690.37 439.01 689.12 440.79 688.74 441.45 688.32 442.05 687.06 444.06 686.26 445.41 686.09 445.78 685.6 446.48 685.07 447.47 684.68 448.55 684.23 449.47 684.08 449.92 683.83 450.44 683.25 452.13 683.07 452.79 683.03 453.16 682.8 453.86 682.7 454.57 682.72 454.65 682.7 455.5 682.94 455.83 683.42 456.37 683.92 456.8 684.09 457.09 684.15 457.44 684.27 457.82 684.83 458.35 685.04 458.5 685.29 458.77 685.69 459.35 686.65 460.55 686.84 460.89 687.39 461.62 687.88 462.4 688.26 463.44 688.44 464 688.54 464.43 688.51 464.71 688.56 465.23 688.71 465.41 689.04 466.22 689.18 466.41 689.66 466.71 689.69 466.93 689.61 467.28 689.61 467.77 689.64 468.04 689.71 468.13 689.93 468.73 690.21 469.24 690.15 470.01 690.66 471.14 691.49 473.4 691.56 473.48 691.97 474.76 692 475.04 691.76 476.11 691.73 476.36 691.83 476.94 691.83 477.37 691.82 477.49 691.75 477.6 691.46 477.79 691.3 478 691.29 478.53 691.23 478.98 691.2 479.85 691.11 481.35 691.06 481.63 690.93 482.04 690.14 483.59 690.01 484 689.82 484.16 689.56 484.48 689.36 484.96 688.94 485.39 688.11 486.58 687.87 486.73 687.27 486.93 686.53 487.29 685.59 487.91 685.47 487.97 685.25 487.99 684.81 488.25 684.29 488.51 684.02 488.6 683.16 488.68 682.86 488.82 682.52 489.08 682.19 489.1 681.93 489.09 681.64 488.97 681.3 488.95 680.72 489.27 680.65 489.27 680.47 489.18 680.1 488.75 680.03 488.65 679.96 488.14 679.75 488.24 679.72 488.24 678.97 489.18 678 490.09 677.04 491.14 676.61 491.53 675.07 493.11 674.38 493.87 674.38 493.91 673.21 495.09 672.53 495.71 671.9 496.38 671.22 496.99 668.71 499.54 668.44 499.87 667.44 500.85 666.15 502.26 664.92 503.43 663.88 504.74 662.41 506.36 660.57 508.3 659.94 509.14 659.5 509.61 659.1 510.17 658.54 510.79 657.43 511.72 654.01 515.62 651.93 518.21 650.82 519.49 649.84 520.88 648 523.06 647.33 524.05 646.53 525.12 646.2 525.48 645.99 525.8 645.26 526.66 644.77 527.47 644.3 528.13 643.3 529.44 643.14 529.69 643.07 529.83 642.36 530.81 642.3 530.96 641.96 531.41 641.74 531.8 641.58 532.19 640.27 534.32 639.98 534.84 639.88 535.17 639.84 535.51 639.94 536.48 639.97 536.6 640.33 537.1 640.55 537.48 640.55 537.54 640.44 537.67 639.89 537.78 639.66 537.86 639.52 538.02 638.97 538.93 638.59 539.87 638.5 540 638.52 540.02 638.4 540.27 638.29 540.72 638.16 541.5 637.7 542.26 637.42 542.88 636.97 544.18 636.68 545.34 636.49 545.82 636.49 545.95 636.4 546.13 636.23 546.88 636.2 547.44 636.21 547.78 636.26 547.96 636.58 548.25 636.82 548.56 636.89 549.13 636.97 549.25 637.54 549.3 637.86 549.44 638.03 549.61 638.06 549.98 637.88 550.17 637.51 550.39 637.32 550.66 637.2 550.99 637.16 551.28 637.24 551.85 637.24 552.28 637.09 552.54 636.69 553.03 636.42 553.5 635.18 555.04 634.45 555.87 634.38 555.99 634.26 556.45 633.99 557.09 633.95 557.41 633.96 557.65 634.12 558.14 634.19 558.3 634.27 558.35 634.93 558.4 635.04 558.43 635.33 558.65 635.46 558.82 635.46 559.05 635.3 559.23 635.02 559.29 634.88 559.5 634.98 559.78 635 559.82 635.03 560.75 635.39 562.58 636.25 564.77 636.59 566.12 638.83 568.67 639.39 569.31 640.08 570.68 640.25 571.85 640.25 573.21 638.15 574.71 636.75 576.74 633.76 582.27 632.54 586.31 631.13 589.49 630.95 590.69 629.91 593.87 628.95 597.59 628.85 597.58 628.15 599.08 626.04 604.8 625.37 606.94 625.34 606.99 625.32 607.05 625.16 608.51 624.8 611.13 624.8 611.2 624.45 615.4 623.57 618.93 623.02 632.22 622.66 633.4 622.81 645.01 623.17 647.87 625.59 654.43 626.11 655.28 626.47 656.46 626.99 657.8 629.25 659.15 633.27 660.5 634.85 662.19 635.37 663.36 636.59 665.21 637.11 667.4 638.67 670.27 639.55 671.1 641.99 672.46 645.13 676.84 647.05 678.7 648.28 679.69 648.45 680.2 651.07 684.25 654.74 686.11 656.3 688.8 659.29 690.65 662.77 691.66 665.05 696.54 665.38 697.9 666.6 700.25 667.46 703.96 668.16 707.16 668.16 709.01 668.5 710.69 670.25 717.6 671.99 721.3 672.15 722.14 673.04 723.3 676 726.35 676.87 728.36 677.91 729.39 678.44 730.4 680.01 732.91 682.1 736.78 683.85 737.98 687 738.99 687.52 739.82 691.36 741.85 694.5 744.03 695.38 745.55 697.12 747.24 699.74 747.9 700.98 749.24 703.94 750.76 705.34 751.77 706.74 753.13 710.23 754.65 712.15 756.69 713.02 759.2 713.37 759.71 713.89 763.42 714.41 764.94 714.59 766.44 715.27 770.32 715.79 771.32 716.13 775.53 717.01 777.22 716.65 780.24 715.96 782.43 716.28 793.19 716.46 793.7 717.68 796.9 719.94 799.93 721.34 803.46 723.96 806.16 732.35 810.55 734.97 812.9 735.15 814.58 735.15 815.43 734.98 815.89 734.78 816.39 733.74 819.12 733.38 821.82 732.68 824.68 731.98 826.36 730.22 827.88 730.05 833.25 729.51 834.26 730.21 835.28 729.87 836.96 730.2 845.17 730.89 848.06 731.42 851.57 732.64 856.98 733.51 859.15 734.72 864.22 735.76 866.24 737.69 868.76 738.22 869.95 742.41 873.83 743.22 875.72 743.92 881.55 745.67 892.4 738.61 898.71 730.55 899.77 719.22 903.34 716.97 902.41 714.52 901.39 710.76 890.52 708.64 891.28 707.48 893.02 707.15 892.98 705.92 892.87 705.64 892.85 704.01 895.14 702.05 895.61 702.13 893.64 699.59 893.39 699.63 893.09 694.94 892.63 694.17 899.84 694.01 899.82 682.12 898.65 680.74 911.45 683.09 911.7 682.4 917.49 672.76 916.47 672.18 916.44 671.76 916.37 669.84 916.16 669.87 915.9 667.62 915.7 666.38 912.38 666.71 912.41 667.3 910.99 667.09 910.01 666.32 907.52 667.1 904.57 655.65 903.25 656.45 894.64 631.63 891.9 631.64 891.78 631.74 891.53 632.01 890.49 632.07 890.15 632.02 889.53 632.03 889.34 632.47 888.96 632.67 888.6 632.7 887.92 633.02 887.58 633.27 887.07 633.66 886.36 634.06 885.82 634.37 885.36 634.71 884.71 635.9 883.92 636.99 883.42 637.49 883.16 638.04 882.74 638.92 882.01 639.09 879.29 639.26 878.78 639.56 878.29 639.45 878.26 630.22 877.4 631 871.24 633.63 871.59 631.14 867.96 628.17 863.63 625.01 859.02 624.11 857.7 622.87 855.07 622.23 853.64 619.49 847.64 619.6 846.7 619.84 844.72 616.02 844.29 613.97 844.05 611.85 842.12 612.2 839.46 611.58 839.5 611.13 839.04 611.11 838.57 611.31 838.4 611.31 838.23 611.95 838.23 612.37 838.14 612.61 836.34 611.5 836.62 610.8 836.66 610.35 836.64 609.33 836.76 608.18 836.82 607.54 836.73 608.66 827.69 608.69 827.42 606.42 827.15 602.32 826.7 603.07 820.81 597.37 820.19 598.15 813.45 584.74 811.85 585.69 803.65 580.1 802.98 580.48 800.14 574.89 799.51 575.26 796.48 569.67 795.88 569.75 795.21 568.36 795.06 567.24 803.31 559.45 802.37 553.76 801.69 552.18 799.3 551.4 798.44 542.17 797.34 546.84 812.9 540.62 812.16 538.31 811.26 536.32 811.12 528.41 810.09 521.39 795.16 511.03 793.97 511.99 786.26 507.23 785.73 509.26 768.31 519.35 762.71 519.61 762.71 520.34 758.69 520.54 758.04 518.67 753.43 518.14 752.12 515.66 746 509.9 742.91 507.12 739.79 507.01 739.65 507.18 733.97 491.95 732.3 487.05 731.77 484.58 731.51 483.61 739.37 475.06 738.36 469.73 744.74 476.52 745.4 475.68 753.03 457.93 751.26 457.01 753.11 456.78 754.05 456.51 754.73 456.15 756.76 454.21 757.9 453.93 758.42 453.48 758.94 453.25 759.55 452.95 759.79 451.87 760.17 451.83 760.47 448.98 789.26 433.81 787.9 431.61 808.99 423.24 808.18 421.51 808.06 420.88 815.54 422.42 819.09 422.6 819.92 424.29 829.75 424.3 836.14 425.24 837.31 427.97 838.67 428.03 839.48 426 841.13 426.22 842.45 427.75 842.93 430.35 842.39 430.73 843.11 429.42 845.41 429.8 849.16 430.69 850.02 431.99 848.99 431.9 845.77 432.75 845.17 433.4 845.96 432.94 849.16 435.96 852.96 439.7 851.46 441.66 851.32 442.44 851.77 443.22 854.07 444.05 855.15 447.37 857.15 448.1 862.56 449.43 864.93 449.23 870.77 449.73 872.6 452.43 876.53 457.48 878.83 462.15 886.73 464.71 893.35 465.74 898.3 466.48 902.82 468.14 909.28 469.33 912.51 472.41 915.64 474.76 917.76 475.46 920.91 476.62 923.66 478.55 927.84 480.94 930.11 477.95 929.57 475.29 928.46 473.04 927.05 470.87 925.56 468.45 924.7 465.95 924.45 462.8 924.51 460.46 924.18 453.73 924 452.5 923.53 451.63 923.15 451.36 923.04 451.57 921.64 451.66 920.58 451.51 918.93 451.2 917.64 450.19 916.17 449.49 915.19 447.56 914.19 446.85 913.81 446.64 913.76 446.28 913.81 445.05 914.66 443.31 915.33 441.83 915.81 440.13 916.4 439.26 916.62 437.65 917.16 436.29 917.64 435.04 917.6 434.03 917.43 433.63 917.46 433.04 917.37 432.62 917.37 432.31 917.83 425.15 932 371.99 907.16 360.86 879.39 347.44 878.05 348.36 824.46 348.36 822.07 334.8 820.88 334.08 820.81 333.34 820.75 332 820.64 297.16 817.28 298.12 815.39 299.05 814.99 299.26 814.11 300.77 813.73 301.17 813.87 301.63 812.58 300.57 811.5 300.73 809.39 301.56 807.12 304 806.44 304.42 804.49 304.35 802.63 303.06 801.92 301.35 801.67 300.71 800.26 299.99 799.32 297.48 797.74 297.99 795.01 296.94 793.75 296.79 792.5 296.14 791.95 293.87 792.17 291.26 792.62 289.31 792.68 287.54 790.95 285.45 791.81 283.58 791.96 282.04 791.17 281.57 789.21 280.04 787.63 279.89 786.23 279.57 785.13 280.64 783.65 281.13 782.09 280.58 780.52 279.2 779.42 276.77 778.62 277.02 777.53 276.14 775.57 276 773.3 275.12 770.95 273.18 769.13 275.66 763.57 273.88 762.08 274.14 760.13 274.65 757.78 274.03 752.93 274.29 751.45 274.94 750.36 273.73 750.19 270.85 747.4 268.41 747.38 266.55 746.28 264.76 746.81 261.83 746.79 259.72 746.31 257.3 744.81 255.27 744.4 253.98 742.75 252.13 740.71 251.17 738.67 251.02 737.18 251.93 735.16 251.36 734.53 251.46 731.87 248.63 730.76 248.65 728.33 247.36 726.53 246.89 724.49 248.04 722.54 249.59 721.07 251.06 719.71 249.21 717.2 247.84 715.78 243.8 713.88 239.58 713.38 239.27 710.95 237.9 709.3 234.09 708.18 231.09 707.3 228.09 706.19 228.43 704.71 228.95 700.49 229.05 697.52 227.59 696.8 225.82 695.54 Z M 632.74 391.35 632.71 391.61 632.55 391.95 632.52 392.15 632.55 392.4 632.63 392.6 633.05 393.19 633.12 393.36 633.18 393.68 633.15 393.92 632.98 394.29 632.76 394.51 632.53 394.53 632.03 393.83 631.23 393.06 631.12 392.9 631.04 392.69 630.95 392.16 630.88 391.93 630.74 391.79 630.69 391.2 630.62 390.8 630.54 390.62 630.25 390.32 630.08 390.13 629.77 389.85 629.68 389.77 629.37 389.36 629.31 389.08 629.31 388.19 629.34 387.66 629.42 387.33 629.56 387.22 629.68 387.22 630.04 387.37 630.4 387.67 630.46 387.91 630.93 388.92 631.09 389.18 631.22 389.26 631.68 389.43 632.05 389.66 632.23 389.9 632.34 390.33 632.41 390.42 632.41 390.5 632.49 390.59 632.64 390.98 632.74 391.35 Z M 794.58 450.96 794.64 451.47 794.63 451.57 794.41 452.13 794.1 452.6 793.39 454.33 793.26 454.56 792.19 455.95 792.07 456.13 791.81 456.99 791.89 457.33 792.07 457.63 792.19 458.22 792.29 459.01 792.24 459.57 792.01 460.49 791.79 461.04 791.57 461.94 791.22 462.77 791.04 463.07 791.04 463.13 790.64 463.83 790.33 464.28 789.46 465.28 788.94 466.78 788.88 467.05 788.82 467.16 788.57 467.46 788.18 467.84 787.36 468.52 786.47 469.04 784.72 470.54 784.06 471.21 783.9 471.43 783.6 471.69 782.82 472.31 782.25 472.45 781.85 472.45 781.36 472.36 780.89 472.36 780.26 472.45 779.93 472.71 779.11 473.88 778.85 474.18 778.61 474.38 778.09 474.68 777.88 474.85 777.68 475.3 777.3 475.97 777.17 476.15 776.92 476.39 776.44 476.75 775.5 477.07 774.63 477.24 774.35 477.26 772.7 477.32 772.03 477.46 771.85 477.56 771.47 477.85 771.02 477.92 769.81 477.99 769.22 477.94 768.89 477.87 768.55 477.77 768.22 477.61 767.6 477.13 766.89 476.46 766.46 476.25 766.21 476.03 766.11 475.69 765.66 475.16 765.57 474.88 765.46 474.7 765.16 474.33 764.83 474.1 764.71 473.98 764.53 473.73 764.29 473.34 764.12 473 763.78 472.09 763.47 471.59 762.93 470.97 762.43 469.91 762.17 469.16 762.1 468.52 762.01 467 762.04 466.59 762.42 465.13 762.62 464.94 763.21 464.47 763.26 464.44 763.3 464.29 763.53 463.96 765.25 463.14 766.12 462.67 767.9 461.5 768.27 461.34 769.12 461.09 770.74 459.92 771.01 459.67 771.12 459.49 771.28 458.95 771.77 458.07 772.11 457.23 772.41 456.32 772.65 455.3 773.23 453.42 773.61 452.41 773.62 452.25 773.61 451.83 773.73 451.35 773.8 451.23 774.02 450.94 774.43 450.67 775.38 449.86 775.61 449.82 776.31 449.3 776.46 448.99 776.6 448.83 776.7 448.77 777.03 448.77 777.18 448.88 777.42 448.95 777.96 449.05 779.19 449.16 779.84 449.14 780.31 449.03 781.24 448.54 781.77 448.36 782.3 448.21 782.83 448.12 783.24 447.88 784.56 447.42 784.86 447.39 784.92 447.4 785.02 447.28 786.79 446.63 787.97 446.47 788.33 446.51 788.55 446.73 789.03 446.89 789.26 446.94 789.3 446.92 790.33 447.12 791.14 447.39 791.28 447.48 791.39 447.5 791.66 447.55 792.57 447.64 793.31 447.93 793.68 448.03 794.17 448.25 795.04 448.79 795.12 448.9 795.27 449.04 795.36 449.24 795.29 449.65 795.26 449.75 795.17 449.81 794.84 450.24 794.65 450.75 794.58 450.96 Z M 796.96 445.78 797.3 445.4 797.83 445.04 798.59 445.09 799 445.45 798.83 446.49 798.06 447.26 797.8 447.92 797.7 448.08 797.42 448.26 797.29 448.28 797.24 448.28 797.2 448.28 796.74 448.17 796.47 447.96 796.37 447.82 796.33 447.57 796.38 447.11 796.46 446.77 796.57 446.6 796.57 446.54 796.77 446.2 796.82 446.02 796.96 445.78 Z M 640.51 553.18 640.15 553.04 639.85 552.78 639.93 552.61 640.14 552.5 640.43 552.49 640.83 552.59 641.24 552.75 641.46 552.94 641.52 553.17 641.4 553.31 641.16 553.33 640.51 553.18 Z" fill-rule="evenodd" fill="#ffff7f" stroke="#000000"/>
</g>
</svg>
